<svg width="120" height="120" viewBox="0 0 120 120" fill="none" xmlns="http://www.w3.org/2000/svg">
<circle cx="60" cy="60" r="60" fill="#E84142"/>
<path fill-rule="evenodd" clip-rule="evenodd" d="M63.5905 17.811C61.5118 14.2205 58.2047 14.2205 56.1259 17.811L18.3779 84.2835C16.2992 87.9212 18 90.8031 22.1574 90.8031H41.1023C44.9291 90.5669 48.3779 88.5354 50.4567 85.3228L73.2756 45.7795C74.9291 42.3779 74.9291 38.3622 73.2756 34.9606L66.4724 23.0079L63.5905 17.811ZM88.6771 61.559C86.5984 57.9685 83.2441 57.9685 81.1653 61.559L67.9842 84.2835C65.9527 87.874 67.6535 90.8031 71.7637 90.8031H97.8425C102 90.8031 103.701 87.874 101.622 84.2835L88.6771 61.559Z" fill="white"/>
</svg>
