<svg width="120" height="120" viewBox="0 0 120 120" fill="none" xmlns="http://www.w3.org/2000/svg">
<path d="M118.205 74.5143C110.192 106.657 77.6358 126.219 45.4888 118.204C13.3553 110.19 -6.20637 77.6324 1.81058 45.4918C9.8205 13.3451 42.3763 -6.21803 74.5133 1.79541C106.658 9.80884 126.219 42.3702 118.204 74.5149L118.205 74.5143H118.205Z" fill="#F7931A"/>
<path fill-rule="evenodd" clip-rule="evenodd" d="M86.464 51.4515C87.6582 43.4668 81.5792 39.1747 73.2666 36.3115L75.9633 25.4955L69.3793 23.8549L66.7542 34.3861C65.0233 33.9544 63.2457 33.5477 61.4791 33.1444L64.1232 22.5437L57.5433 20.9031L54.8452 31.7156C53.4128 31.3894 52.006 31.0671 50.6411 30.7275L50.6487 30.6935L41.5692 28.4262L39.8178 35.4583C39.8178 35.4583 44.7026 36.5781 44.5996 36.647C47.2658 37.3124 47.7479 39.0773 47.6679 40.4763L44.5961 52.7982C44.7797 52.8448 45.0179 52.9123 45.2806 53.0179L45.0896 52.9702L45.0894 52.9701C44.927 52.9295 44.7581 52.8872 44.5847 52.8457L40.2791 70.107C39.9533 70.917 39.1263 72.1326 37.2622 71.671C37.3282 71.7666 32.4768 70.4768 32.4768 70.4768L29.208 78.0134L37.776 80.1493C38.7142 80.3846 39.6414 80.6262 40.5591 80.8655L40.5609 80.866C41.2017 81.033 41.838 81.1989 42.4702 81.3605L39.7457 92.3005L46.322 93.9411L49.0202 83.1172C50.8168 83.6049 52.5603 84.0548 54.2671 84.4789L51.5781 95.2517L58.1624 96.8923L60.8866 85.9728C72.1138 88.0976 80.5557 87.2409 84.109 77.086C86.9722 68.9101 83.9665 64.1943 78.0599 61.119C82.362 60.1268 85.6024 57.2973 86.4663 51.4524L86.4643 51.4509L86.464 51.4515ZM71.4211 72.5455C69.5543 80.0467 57.8129 76.9455 52.4408 75.5266C51.9576 75.399 51.5259 75.285 51.1576 75.1935L54.773 60.6999C55.2219 60.812 55.7705 60.9351 56.3919 61.0745L56.392 61.0745C61.9487 62.3216 73.3337 64.8766 71.4214 72.5455H71.4211ZM57.5066 54.3478C61.9853 55.5431 71.7557 58.1506 73.4573 51.333H73.4579C75.1954 44.3603 65.7002 42.2581 61.0628 41.2314C60.5411 41.1159 60.0809 41.014 59.705 40.9203L56.4271 54.0651C56.7366 54.1423 57.0998 54.2392 57.5066 54.3478Z" fill="white"/>
</svg>
