<svg width="120" height="120" viewBox="0 0 120 120" fill="none" xmlns="http://www.w3.org/2000/svg">
<circle cx="60" cy="60" r="60" fill="#EDF0F4"/>
<path d="M41.9313 59.6948C41.7607 62.66 44.0432 65.1986 47.0084 65.3693C47.1151 65.3693 47.2218 65.3693 47.3284 65.3693C50.315 65.3693 52.7255 62.9587 52.7042 59.9722C52.7042 56.9856 50.2936 54.5751 47.3071 54.5964C44.4486 54.5964 42.0807 56.8363 41.9313 59.6948Z" fill="#0033AD"/>
<path d="M21.8364 58.3082C20.8764 58.2442 20.0445 58.9909 20.0018 59.9508C19.9591 60.9108 20.6844 61.7428 21.6444 61.7854C22.6043 61.8494 23.415 61.1028 23.479 60.1428C23.543 59.1829 22.7963 58.3722 21.8364 58.3082Z" fill="#0033AD"/>
<path d="M41.5903 28.4216C42.4436 27.9949 42.7849 26.9283 42.3583 26.075C41.9316 25.2217 40.865 24.8804 40.0117 25.307C39.1584 25.7337 38.8171 26.779 39.2437 27.6323C39.6704 28.5069 40.7157 28.8696 41.5903 28.4216C41.5903 28.4216 41.569 28.4216 41.5903 28.4216Z" fill="#0033AD"/>
<path d="M47.0511 37.9572C48.3737 37.2959 48.907 35.6746 48.2457 34.352C47.5844 33.0294 45.9632 32.4961 44.6405 33.1574C43.3179 33.8187 42.7846 35.4399 43.4459 36.7625C44.1072 38.0852 45.7285 38.6185 47.0511 37.9572Z" fill="#0033AD"/>
<path d="M28.6625 44.5062C29.6864 45.1675 31.0517 44.8902 31.7344 43.8662C32.3957 42.8423 32.1183 41.477 31.0944 40.7944C30.0704 40.1331 28.7052 40.4104 28.0225 41.4343C27.3399 42.4583 27.6385 43.8449 28.6625 44.5062Z" fill="#0033AD"/>
<path d="M31.9267 57.3483C30.4334 57.2629 29.1748 58.3936 29.0895 59.8868C29.0042 61.3801 30.1348 62.6387 31.628 62.724C33.1213 62.8094 34.3799 61.6788 34.4652 60.1855C34.5506 58.7136 33.42 57.4336 31.9267 57.3483Z" fill="#0033AD"/>
<path d="M28.9614 75.4168C27.8735 75.9714 27.4255 77.2941 27.9801 78.4033C28.5348 79.4913 29.8574 79.9393 30.9667 79.3846C32.0546 78.83 32.5026 77.5074 31.948 76.3981C31.3933 75.3101 30.0494 74.8622 28.9614 75.4168Z" fill="#0033AD"/>
<path d="M39.4144 51.7805C40.8863 52.7405 42.8489 52.3352 43.7875 50.8632C44.7475 49.3913 44.3421 47.4287 42.8702 46.4901C41.3983 45.5302 39.4357 45.9355 38.4971 47.4074C37.5371 48.858 37.9424 50.8206 39.4144 51.7805Z" fill="#0033AD"/>
<path d="M72.5863 37.7438C73.8236 38.5545 75.5089 38.2131 76.3195 36.9759C77.1301 35.7386 76.7888 34.0533 75.5515 33.2427C74.3142 32.4321 72.629 32.7734 71.8183 34.0107C70.9864 35.2693 71.3277 36.9332 72.5863 37.7438Z" fill="#0033AD"/>
<path d="M78.0897 28.2509C78.9004 28.7842 79.967 28.5496 80.5003 27.7389C81.0336 26.9283 80.7989 25.8617 79.9883 25.3284C79.1777 24.7951 78.1111 25.0297 77.5778 25.819C77.0658 26.6297 77.3004 27.7176 78.0897 28.2509Z" fill="#0033AD"/>
<path d="M72.9915 54.5537C70.0263 54.3831 67.4664 56.6657 67.3171 59.6309C67.1464 62.5961 69.429 65.1559 72.3942 65.3053C72.5009 65.3053 72.6075 65.3053 72.6928 65.3053C75.658 65.3053 78.0686 62.8947 78.0686 59.9082C78.0899 57.071 75.85 54.7031 72.9915 54.5537Z" fill="#0033AD"/>
<path d="M48.8216 51.3965C49.7389 53.2098 51.5948 54.3617 53.6427 54.3617C56.6079 54.3617 59.0185 51.9512 59.0185 48.9647C59.0185 48.1327 58.8265 47.3007 58.4425 46.5328C57.0986 43.8662 53.856 42.7996 51.2108 44.1435C48.5443 45.5088 47.4777 48.7513 48.8216 51.3965Z" fill="#0033AD"/>
<path d="M91.0387 44.5062C92.1266 43.9515 92.5533 42.6076 91.9986 41.5197C91.444 40.4317 90.1001 40.0051 89.0121 40.5597C87.9242 41.1143 87.4975 42.4369 88.0308 43.5249C88.6068 44.6128 89.9294 45.0608 91.0387 44.5062Z" fill="#0033AD"/>
<path d="M77.3857 46.2128C75.8284 47.0021 75.1884 48.9007 75.9777 50.4579C76.767 52.0152 78.6656 52.6552 80.2229 51.8659C81.7801 51.0766 82.4201 49.178 81.6308 47.6207C80.8415 46.0635 78.9429 45.4448 77.3857 46.2128Z" fill="#0033AD"/>
<path d="M59.7865 27.4403C61.0025 27.5043 62.0478 26.5657 62.1331 25.3497C62.2184 24.1338 61.2585 23.0885 60.0425 23.0032C58.8266 22.9392 57.7813 23.8564 57.696 25.0724C57.632 26.3097 58.5706 27.355 59.7865 27.4403Z" fill="#0033AD"/>
<path d="M59.7653 41.3703C61.5146 41.477 63.0079 40.1331 63.0932 38.3838C63.1999 36.6345 61.8559 35.1413 60.1067 35.056C58.3574 34.9493 56.8641 36.2932 56.7788 38.0425C56.6935 39.7917 58.0161 41.285 59.7653 41.3703Z" fill="#0033AD"/>
<path d="M42.614 73.7102C44.1713 72.9209 44.8112 71.0223 44.0219 69.4651C43.2326 67.9078 41.3341 67.2678 39.7768 68.0571C38.2195 68.8464 37.5796 70.745 38.3689 72.3023C39.1581 73.8596 41.0567 74.4995 42.614 73.7102Z" fill="#0033AD"/>
<path d="M61.8134 45.9995C60.1921 48.4953 60.8748 51.8232 63.3707 53.4445C65.8665 55.0657 69.1944 54.3831 70.8157 51.8872C72.4369 49.3913 71.7543 46.0635 69.2584 44.4422C68.3838 43.8662 67.3598 43.5676 66.3145 43.5676C64.5013 43.5676 62.816 44.4849 61.8134 45.9995Z" fill="#0033AD"/>
<path d="M71.1783 68.5264C69.8344 65.8599 66.5919 64.7933 63.9467 66.1372C61.2801 67.4812 60.2135 70.7237 61.5574 73.3689C62.9014 76.0354 66.1439 77.1021 68.7891 75.7581C71.4343 74.4355 72.5223 71.2357 71.1997 68.5691C71.1997 68.5478 71.1997 68.5478 71.1783 68.5264Z" fill="#0033AD"/>
<path d="M80.5855 68.1425C79.1136 67.1825 77.151 67.5878 76.2124 69.0598C75.2524 70.5317 75.6578 72.4943 77.1297 73.4329C78.6016 74.3929 80.5642 73.9875 81.5028 72.5156C82.4628 71.065 82.0575 69.1024 80.5855 68.1425Z" fill="#0033AD"/>
<path d="M90.9106 60.0575C90.9959 58.5642 89.8653 57.3056 88.372 57.2203C86.8787 57.135 85.6201 58.2656 85.5348 59.7588C85.4495 61.2521 86.5801 62.5107 88.0734 62.596C89.5453 62.6814 90.8252 61.5294 90.9106 60.0575Z" fill="#0033AD"/>
<path d="M98.3554 58.1376C97.3955 58.0736 96.5635 58.8202 96.5208 59.7802C96.4782 60.7401 97.2035 61.5721 98.1634 61.6148C99.1234 61.6788 99.934 60.9321 99.998 59.9722C100.041 59.0122 99.3154 58.2016 98.3554 58.1376Z" fill="#0033AD"/>
<path d="M91.3374 75.4168C90.3135 74.7555 88.9482 75.0328 88.2655 76.0568C87.6042 77.0807 87.8816 78.446 88.9055 79.1286C89.9295 79.7899 91.2947 79.5126 91.9774 78.4887C92.66 77.4647 92.3614 76.0781 91.3374 75.4168Z" fill="#0033AD"/>
<path d="M41.8889 91.6721C41.0783 91.1388 40.0116 91.3734 39.4783 92.1627C38.945 92.9734 39.1797 94.04 39.969 94.5733C40.7796 95.1066 41.8462 94.8719 42.3795 94.0826C42.9342 93.2933 42.6995 92.2054 41.8889 91.6721Z" fill="#0033AD"/>
<path d="M78.4097 91.5014C77.5564 91.9281 77.215 92.9947 77.6417 93.848C78.0683 94.7013 79.135 95.0426 79.9882 94.6159C80.8415 94.1893 81.1829 93.144 80.7562 92.2907C80.3296 91.4161 79.2843 91.0534 78.4097 91.5014C78.431 91.5014 78.4097 91.5014 78.4097 91.5014Z" fill="#0033AD"/>
<path d="M58.1867 73.9235C59.808 71.4277 59.1254 68.0998 56.6295 66.4572C54.1336 64.8359 50.8057 65.5186 49.1631 68.0145C47.5205 70.5104 48.2245 73.8382 50.7204 75.4808C51.595 76.0568 52.619 76.3554 53.6643 76.3554C55.4989 76.3768 57.1841 75.4595 58.1867 73.9235Z" fill="#0033AD"/>
<path d="M47.4141 82.1792C46.1768 81.3685 44.4915 81.7099 43.6809 82.9471C42.8703 84.1844 43.2116 85.8697 44.4489 86.6803C45.6861 87.4909 47.3714 87.1496 48.182 85.9123C49.014 84.6751 48.6727 82.9898 47.4141 82.1792Z" fill="#0033AD"/>
<path d="M59.9788 92.4827C58.7628 92.4187 57.7176 93.3573 57.6322 94.5733C57.5469 95.7892 58.5069 96.8345 59.7228 96.9198C60.9388 96.9838 61.984 96.0665 62.0694 94.8506C62.1334 93.6133 61.1947 92.568 59.9788 92.4827Z" fill="#0033AD"/>
<path d="M59.9998 78.5527C58.2505 78.446 56.7573 79.79 56.672 81.5392C56.5653 83.2885 57.9092 84.7817 59.6585 84.8671C61.4077 84.9524 62.901 83.6298 62.9863 81.8805C63.093 80.1526 61.7491 78.638 59.9998 78.5527Z" fill="#0033AD"/>
<path d="M72.9489 81.9659C71.6263 82.6485 71.093 84.2698 71.7757 85.5924C72.4583 86.915 74.0796 87.4483 75.4022 86.7656C76.7248 86.1043 77.2581 84.4831 76.5968 83.1605C75.9141 81.8379 74.2929 81.2832 72.9489 81.9659Z" fill="#0033AD"/>
</svg>
