<svg width="120" height="120" viewBox="0 0 120 120" fill="none" xmlns="http://www.w3.org/2000/svg">
<path d="M59.9614 120C93.1101 120 119.961 93.1487 119.961 60C119.961 26.8513 93.1101 0 59.9614 0C26.8126 0 0 26.8513 0 60C0 93.1487 26.8513 120 59.9614 120Z" fill="#008CE3"/>
<path d="M69.1178 33.7283H45.5505L43.6188 44.6233L64.868 44.6619C75.338 44.6619 78.4288 48.4482 78.3515 54.7457C78.3129 57.991 76.9221 63.4385 76.3039 65.2157C74.6812 69.9292 71.3973 75.3381 58.9568 75.2994H38.2872L36.3168 86.2331H59.8068C68.0747 86.2331 71.6291 85.2672 75.338 83.5287C83.6059 79.7038 88.5512 71.5518 90.5215 60.8886C93.4964 45.0097 89.8261 33.7283 69.1178 33.7283Z" fill="white"/>
<path d="M35.4281 54.5139C29.2466 54.5139 28.358 58.5319 27.7784 60.9659C27.0057 64.1339 26.7739 65.4475 26.7739 65.4475H50.8821C57.0637 65.4475 57.9523 61.4295 58.5318 58.9955C59.3045 55.8274 59.5363 54.5139 59.5363 54.5139H35.4281Z" fill="white"/>
</svg>
