<svg width="120" height="120" viewBox="0 0 120 120" fill="none" xmlns="http://www.w3.org/2000/svg">
<circle cx="60" cy="60" r="60" fill="#988430"/>
<circle cx="60" cy="60" r="58.0781" fill="#7A6A2A"/>
<circle cx="59.9999" cy="60" r="56.8544" fill="#BA9F33"/>
<path fill-rule="evenodd" clip-rule="evenodd" d="M26.2332 53.5923C25.8933 53.2819 25.5343 52.9709 25.204 52.6605C24.8738 52.3501 24.5346 52.039 24.1948 51.7286L23.1848 50.7686C23.0197 50.6035 22.845 50.4582 22.6799 50.2925C22.5148 50.1472 22.3208 49.9821 22.1557 49.8362C20.8156 48.5645 19.4677 47.2928 18.1461 46.0205C19.5151 47.273 20.8552 48.5165 22.2242 49.7875L22.6997 50.2637C22.8648 50.4282 23.0396 50.5741 23.2047 50.7392L24.214 51.671C24.5538 51.9814 24.884 52.2925 25.2239 52.631C25.5637 52.9696 25.894 53.2813 26.2338 53.591L26.2332 53.5923ZM8.44693 53.4003C8.44693 53.4003 13.3205 53.9046 15.6994 54.2445C17.9029 54.5555 24.7964 55.6134 24.7964 55.6134L8.44693 53.4003ZM8.44693 53.4003C9.81589 53.5168 11.1848 53.6621 12.5538 53.808C13.2527 53.8758 13.9228 53.9533 14.5928 54.0211L15.6213 54.1382C15.9612 54.1862 16.2914 54.2349 16.6312 54.2835L20.7093 54.9338L22.7477 55.2736C23.4178 55.3901 24.0879 55.5168 24.7868 55.6333C24.1167 55.5654 23.4178 55.4682 22.7477 55.3709L20.7093 55.0797L16.6312 54.4781C16.2914 54.4294 15.9612 54.361 15.6213 54.313L14.5922 54.1946C13.9221 54.1267 13.2232 54.0294 12.5532 53.9514C11.1842 53.7869 9.81525 53.6115 8.44629 53.3984L8.44693 53.4003ZM24.3112 56.8832C24.3112 56.8832 19.1074 58.2042 17.35 58.7091C15.622 59.1846 10.3887 60.777 10.3887 60.777L24.3106 56.8838L24.3112 56.8832Z" fill="#CFB66C"/>
<path fill-rule="evenodd" clip-rule="evenodd" d="M24.3106 56.8832C23.1554 57.223 22.0066 57.5533 20.8348 57.8643L17.3589 58.7962C16.2037 59.136 15.0549 59.4662 13.9029 59.8061L12.1749 60.2816C11.6021 60.4467 11.0197 60.592 10.4277 60.7578C10.9999 60.5658 11.5829 60.3693 12.1557 60.2042L13.8837 59.6512C15.0389 59.2915 16.1877 58.9517 17.3397 58.5926C18.5141 58.3014 19.67 57.9904 20.8444 57.7088C21.9605 57.4272 23.1356 57.1462 24.3106 56.8838V56.8832ZM11.117 63.9808C11.6892 63.767 18.2914 60.6899 19.8255 59.9712C20.5935 59.6115 22.8258 58.8192 22.8258 58.8192L11.117 63.9808Z" fill="#CFB66C"/>
<path fill-rule="evenodd" clip-rule="evenodd" d="M11.1169 63.9808C11.6212 63.7888 12.0973 63.5539 12.5825 63.3306L14.0193 62.6605L16.9031 61.2723C17.8631 60.816 18.7962 60.3123 19.7863 59.8835C20.2913 59.6704 20.7962 59.4957 21.3005 59.3306L22.0685 59.088C22.3303 59.0202 22.5735 58.9421 22.8365 58.8742C21.8765 59.3306 20.866 59.719 19.9047 60.1651C18.9447 60.6413 17.9629 61.0298 16.9722 61.4566L14.0404 62.7475C13.0561 63.1462 12.0961 63.5731 11.1162 63.9808H11.1169ZM11.7569 66.6688C11.7569 66.6688 17.737 63.1642 19.7953 62.0378C20.873 61.4362 24.3585 59.7075 24.3585 59.7075L11.7569 66.6688Z" fill="#CFB66C"/>
<path fill-rule="evenodd" clip-rule="evenodd" d="M11.7573 66.6701C12.7666 66.0486 13.7957 65.4176 14.8248 64.777L16.3608 63.8445C16.885 63.5341 17.39 63.2429 17.9244 62.9325C18.4485 62.6214 18.9535 62.311 19.4872 62.0198C19.7413 61.863 20.0076 61.7266 20.2834 61.6122L21.0988 61.2045C22.1765 60.6803 23.2543 60.1459 24.3903 59.6896C23.3612 60.3405 22.3026 60.8941 21.2447 61.4662C20.7205 61.7574 20.1861 62.0198 19.662 62.311C19.1378 62.6022 18.6328 62.9133 18.0984 63.1949C17.5743 63.5053 17.0693 63.7965 16.5356 64.0781L14.9528 64.9421L11.7586 66.6701H11.7573ZM24.3103 60.4755C24.3103 60.4755 20.5919 63.3299 19.388 64.2426C18.1842 65.1552 14.6405 67.7184 14.6405 67.7184L24.3103 60.4755Z" fill="#CFB66C"/>
<path fill-rule="evenodd" clip-rule="evenodd" d="M45.6508 83.495L43.748 79.8931L44.8546 75.3882L52.7477 72.3398L49.3884 65.447L51.0485 58.4858L54.1653 52.2522L63.7967 50.7379L70.8738 43.9904L86.1557 45.1456L89.1554 61.4854L83.3788 82.0582L80.0879 92.7091L66.7477 93.2141L60.5538 88.9229L53.3013 85.8931L45.6508 83.495Z" fill="#E2CC85"/>
<path fill-rule="evenodd" clip-rule="evenodd" d="M69.049 83.3786C69.049 83.3786 67.2039 84.2234 64.057 84.0288C63.1463 82.8058 56.7681 82.233 56.7681 82.233C56.7681 82.233 55.9719 81.9904 54.5639 82.5728C53.147 83.1488 51.8068 83.0778 50.5543 83.3882C49.3018 83.6986 48.0583 82.0678 47.0983 81.728C46.1383 81.369 44.8654 80.505 44.8654 80.505L42.1774 80.2426L36.7796 77.961L28.2042 69.4176L25.874 73.0656L25.1553 77.5802L27.7479 82.9299L34.7284 89.289L48.3399 92.745L56.4078 90.368L66.5146 86.096L69.049 83.3779V83.3786Z" fill="#F1D789"/>
<path fill-rule="evenodd" clip-rule="evenodd" d="M20.6893 53.1846L22.4173 47.952L24.4762 44.5728L31.1066 44.0192L29.1162 49.8253L23.5732 59.6896L25.874 68.4954L21.7965 70.5338L20.5434 68.6118L19.5341 64.2042L19.4663 59.2525L20.6893 53.1846Z" fill="#F4ECB4"/>
<path fill-rule="evenodd" clip-rule="evenodd" d="M28.1261 83.0195L26.8544 81.2429C26.8544 81.2429 26.5146 80.3981 26.7092 79.6602C26.9012 78.9126 26.8736 78.864 26.777 78.5824C26.6804 78.3008 25.8644 77.3299 25.913 76.4947C25.961 75.6499 25.8452 75.3683 26.466 74.6989C27.1162 74.0486 26.9223 72.9222 26.9223 72.9222L27.7671 73.4464L27.9591 73.1552C27.9591 73.1552 28.2695 73.3978 28.2695 73.7766C28.3373 73.2525 28.0557 70.825 28.6964 70.272C29.337 69.719 30.473 72.864 30.473 72.864L29.7741 68.3008L27.9776 63.6218L24.7834 59.3498L24.5914 54.6406V54.233C24.5914 54.233 23.1252 56.4858 22.7175 58.265C22.4263 59.488 23.1252 60.9734 22.9799 62.7309C22.8628 64.4787 22.7175 64.3424 23.1444 65.0349C23.5712 65.7274 24.6106 67.1514 24.2029 68.1805C23.8439 69.0643 22.6202 68.4429 22.6202 68.4429C22.6202 68.4429 22.3776 69.161 22.0474 69.4234C21.9309 68.9965 21.8048 68.7245 21.5719 68.4634C21.552 68.6285 21.504 68.8518 21.504 68.8518C21.504 68.8518 21.2903 68.1818 21.0765 67.337C20.786 66.2112 20.4749 64.7258 20.1933 63.9296C20.0768 64.3859 19.7856 65.7741 19.7856 65.7741L19.9508 67.9104L20.7469 70.8422L21.5149 72.7622L22.2624 75.1117L22.912 76.6899L23.4362 77.8938L23.8925 80.6029L26.096 82.9325L27.2711 83.4573L28.1248 83.0202L28.1261 83.0195Z" fill="#F3E19D"/>
<path fill-rule="evenodd" clip-rule="evenodd" d="M21.8443 48.9126C21.8443 48.9126 20.2616 51.6006 19.8059 54.3104C19.3502 57.0202 18.9419 59.8835 19.2299 63.5725C19.5211 67.2915 20.0747 69.5725 20.5214 71.2038C21.2894 73.913 23.2785 77.68 23.2785 77.68L23.3464 77.5341C23.012 76.9003 22.7452 76.2332 22.5502 75.5437C22.2878 74.5146 22.1905 73.2915 21.948 72.7379C21.7342 72.185 21.3752 71.7088 21.2005 71.0291C21.0353 70.3789 21.0085 69.3498 20.5016 68.583C20.2878 68.272 20.0254 67.4566 19.948 66.6413C19.8507 65.4176 19.9966 64.0486 19.8801 62.9229C19.6664 61.049 19.5211 59.7773 19.715 58.7962C19.9089 57.815 20.9195 55.0298 21.5409 52.816C21.9486 51.3984 21.7054 50.2042 22.4529 48.9709C23.2005 47.7478 23.6574 46.6701 23.8219 45.9226C24.0139 45.2429 21.8417 48.9126 21.8417 48.9126H21.8443Z" fill="#F2E8B0"/>
<path fill-rule="evenodd" clip-rule="evenodd" d="M29.3498 47.8349C29.3498 47.8349 28.5345 48.0781 28.146 48.505C27.7575 48.9126 27.5924 49.2525 27.0682 49.9418C26.5441 50.631 26.5146 51.1942 26.0871 52.0582C25.6602 52.903 24.7181 54.1747 24.6017 54.631C24.4852 55.0874 24.2913 57.223 24.0487 58.233C23.8349 59.2429 24.2913 60.4858 24.2913 60.4858L24.8442 60.3686C24.8442 60.3686 24.8442 61.0874 25.3978 61.5731C25.9508 62.0486 26.0481 59.961 26.0481 59.961L28.1159 52.9805L31.2321 50.864L31.5719 49.1552L29.3485 47.8349H29.3498Z" fill="#F5EEC0"/>
<path fill-rule="evenodd" clip-rule="evenodd" d="M30.8638 51.0003C30.8638 51.0003 29.3975 51.097 28.6794 51.6218C28.3882 51.8349 28.2718 52.0096 27.9614 52.272C27.3886 52.7475 26.8055 53.1846 26.5246 53.808C26.2135 54.4288 25.8737 55.3709 25.6407 57.1475C25.5434 57.895 25.5434 58.5843 25.4756 59.1866C25.3783 60.0019 25.233 60.6522 25.3105 61.1066C25.4078 62.0384 26.369 62.5242 26.4625 63.5821L28.4529 62.5728L30.3268 55.184L34.3076 52.688L32.0548 50.1638L30.8612 50.9958L30.8638 51.0003Z" fill="#E6DB9D"/>
<path fill-rule="evenodd" clip-rule="evenodd" d="M20.3634 100.755C20.3718 100.682 20.3801 100.609 20.3884 100.534C20.679 98.0378 20.7282 96.1459 20.9414 94.9613C21.2518 93.2819 21.4655 92.6573 21.4169 92.0288C21.349 91.0195 21.2716 90.2816 21.3689 89.5046C21.5142 88.4755 22.5241 87.2525 22.4953 86.4077C22.4754 85.7376 22.1356 85.3011 21.8444 84.8934C21.5532 84.4858 21.3202 84.1459 21.3202 84.1459C21.3202 84.1459 23.3106 82.777 23.2914 77.2621C23.3321 77.2735 23.3712 77.2899 23.4079 77.3107L24.3884 80.0966L25.0585 80.912L27.6313 85.7082L30.942 88.9222L35.8348 92.2131L38.903 95.552L39.2134 104.455L35.2038 109.659L34.5471 110.848C29.3303 108.229 24.5465 104.825 20.3628 100.754L20.3634 100.755Z" fill="#E5CB7A"/>
<path fill-rule="evenodd" clip-rule="evenodd" d="M32.6118 109.272C32.6118 109.272 32.6797 108.165 33.5923 107.446C33.7382 107.689 33.8349 107.923 33.8061 108.097C33.9712 107.806 35.1264 105.942 37.7382 105.456C40.3501 104.98 40.9811 103.078 40.9811 103.078L46.5241 98.039L52.864 92.2042L60.5728 89.495L64.1753 88.6112C64.1753 88.6112 64.2432 88.8736 64.1075 89.456C64.7769 89.408 66.2624 89.0682 67.8061 88.5242C68.4275 88.2816 69.0105 88.1843 69.3209 88.505C69.7773 88.9318 69.8451 89.9418 69.8739 90.5434C70.6214 90.3782 71.4854 89.6602 72.1779 89.728C73.2851 89.8445 74.2656 91.1456 75.392 91.1456C76.8774 91.1456 77.5469 90.233 78.5862 89.5142C79.2077 89.0874 80.1005 88.5542 80.6054 88.1939C81.8093 87.3101 94.5472 83.417 94.5472 83.417L99.0131 83.7082L99.7318 88.5043L99.3478 101.042C99.3005 101.087 99.2531 101.135 99.2051 101.18L78.8992 111.786L50.752 116.1C44.4469 115.07 38.3624 112.977 32.7577 109.911L32.6137 109.271L32.6118 109.272Z" fill="#D8C173"/>
<path fill-rule="evenodd" clip-rule="evenodd" d="M22.0703 102.349C22.4703 101.513 22.83 100.813 22.8934 100.563C22.9433 101.068 23.0348 102.174 23.2191 103.35C22.8321 103.021 22.4492 102.688 22.0703 102.349V102.349Z" fill="#F1D789"/>
<path fill-rule="evenodd" clip-rule="evenodd" d="M42.6319 114.148L46.2722 113.136L46.5826 113.233C46.5826 113.233 46.7478 113.331 46.7478 113.66C47.2041 113.398 47.5926 113.446 47.8742 113.272C48.0194 113.583 48.1647 114.612 48.806 114.738C49.4754 114.884 50.1942 114.447 50.9225 113.894C51.6406 113.321 52.4585 112.602 53.0774 112.311C53.3044 112.729 53.5056 113.16 53.6796 113.602C54.495 112.952 55.9126 110.311 57.9318 110.359C58.5154 108.98 59.4904 107.802 60.7362 106.971C62.6102 105.699 63.7846 105.602 65.2508 105.718C65.8332 104.962 66.5508 104.32 67.3673 103.825C67.6098 103.923 68.2799 104.33 69.1151 103.942C69.9599 103.554 70.911 102.049 72.1634 101.855C72.8384 101.762 73.5246 101.906 74.1052 102.262C74.1052 102.262 77.7532 98.6406 80.2703 97.4368C80.173 97.1456 79.9791 96.0486 82.9302 93.6211C83.0953 93.767 82.9788 94.1747 83.0953 94.1971C83.1433 94.1971 83.8633 93.8867 84.7746 93.1872C85.901 92.343 87.2502 91.4592 88.0655 91.2166C89.6015 90.7603 91.231 91.6922 91.231 91.6922C91.3695 91.595 91.5239 91.5227 91.6873 91.4784C92.0751 91.4106 92.3567 91.3619 92.5705 91.2864C92.5513 91.7914 92.8329 92.6554 92.5705 93.4029C92.8744 93.5738 93.1964 93.7105 93.5305 93.8106C93.366 94.1696 93.0063 95.0822 92.4047 95.5194C92.909 95.7619 92.9769 96.0435 93.6956 96.2874C93.4044 96.695 92.9276 97.3946 92.7151 97.8234C92.5014 98.2797 91.734 100.173 91.3942 100.891C91.0351 101.61 90.55 102.93 90.3164 103.195C90.0828 103.46 89.2386 104.583 88.5884 105.136C89.1644 104.922 91.5209 104.204 92.5206 103.932C92.223 104.369 90.7145 106.607 89.2642 108.759C75.2173 117.178 58.2264 119.145 42.6274 114.158L42.6319 114.148Z" fill="#E0CD81"/>
<path fill-rule="evenodd" clip-rule="evenodd" d="M31.1041 50.7379C31.1041 50.7379 30.2599 50.7379 30.0948 50.8544C29.9297 50.9709 30.9396 51.2141 31.25 51.3306C31.5604 51.447 32.2305 51.9808 32.4052 52.4083C32.5703 52.816 38.473 55.1942 38.473 55.1942L42.6477 54.9805L44.0871 52.992L41.3492 50.5939L43.2692 44.9338L40.7258 45.3414L34.6093 48.9894L31.5412 50.1645L31.1041 50.7379Z" fill="#DFC57C"/>
<path fill-rule="evenodd" clip-rule="evenodd" d="M40.2721 52.6118C40.3949 52.8107 40.6144 52.929 40.8481 52.9222C41.7121 52.9222 42.5076 53.136 42.8378 53.5725C43.3914 54.272 44.9255 56.505 44.9255 56.505L48.5953 57.8253L48.8321 53.504L44.8225 50.7181L40.2593 52.3974V52.6112H40.2695L40.2721 52.6118Z" fill="#E5CC7C"/>
<path fill-rule="evenodd" clip-rule="evenodd" d="M39.5521 54.2138C39.5521 54.2138 40.2215 54.2624 41.0663 53.9514C41.9111 53.6403 43.2993 52.9709 43.9015 53.2333C44.7457 53.5923 44.5709 54.7187 45.4842 55.7293C46.0372 56.3507 47.0471 56.3315 47.6199 57.0016C48.1927 57.6717 50.1633 57.3606 50.1633 57.3606L50.9108 61.3926L47.9111 65.2378L46.93 70.0141H42.8737L39.1681 68.544L37.3428 64.128L38.2554 59.6621L39.5521 54.2138Z" fill="#D2C281"/>
<path fill-rule="evenodd" clip-rule="evenodd" d="M47.3982 54.4077C47.4988 54.4387 47.6034 54.4551 47.7086 54.4563C47.5922 54.5536 47.349 54.7667 47.4462 55.3203C47.5435 55.8739 47.8539 56.5728 47.5922 56.9997C47.8011 57.2282 47.9569 57.5001 48.0485 57.7958C48.2136 58.272 48.2622 58.7085 49.3394 58.777C49.1839 58.8727 49.0406 58.9868 48.9125 59.1168C48.9125 59.1168 49.66 59.767 50.0389 60.3686C50.4267 60.352 51.4558 60.032 51.4558 60.032L51.6696 60.1779L52.1259 59.9859C52.1259 59.9859 51.699 59.8208 52.0094 58.7821C52.3006 57.8694 52.563 57.9181 52.5854 57.8502C52.6078 57.7824 52.7992 56.8211 52.7992 56.4326C52.9445 55.9283 53.061 54.3942 53.061 54.3942L52.7506 51.0061L51.0034 49.9475L49.5826 48.576L48.2424 51.1002L47.3598 51.9802L47.292 54.1645L47.3982 54.4077Z" fill="#E2C270"/>
<path fill-rule="evenodd" clip-rule="evenodd" d="M51.6021 51.5731C51.6021 51.5731 51.9125 52.4563 52.0296 53.136C52.0708 53.0039 52.0937 52.8667 52.0974 52.7283C52.0974 52.7283 52.34 54.0685 52.388 54.6221C52.4853 54.6022 52.58 54.5734 52.6017 54.6701C52.6235 54.7667 52.8449 55.8451 52.7937 56.4467C53.198 55.7797 53.7575 55.2203 54.4245 54.816C54.8129 54.5728 55.2693 54.311 55.7454 54.2912C56.4929 54.272 57.0363 54.7674 57.9297 54.7674C60.0846 54.7674 62.0366 53.1846 63.4734 52.6995C64.5313 52.3398 65.444 52.0781 66.0846 51.495C66.3957 51.2333 66.9493 50.6509 67.4536 49.7862C68.1236 48.6342 68.8225 47.6314 69.5221 47.5053C69.2056 47.5634 68.8836 47.5862 68.562 47.5731C68.562 47.5731 68.7758 47.3594 69.1381 47.0682C69.5003 46.777 69.9342 46.4179 70.555 46.4179C71.6622 46.4179 72.2152 46.5824 72.8366 46.5824C73.4581 46.5632 73.8171 46.4179 73.8171 46.4179C73.8171 46.4179 74.468 46.8742 75.9336 46.8742C77.3998 46.8934 78.3803 47.0195 79.1477 47.088C79.915 47.1565 82.4872 46.8742 83.2251 46.896C83.7062 46.9145 84.1786 47.0301 84.6139 47.2358L82.235 40.3238L73.6897 32.855L68.6024 36.457L60.7765 44.2822L53.204 47.088L51.6213 48.8646V51.5731H51.6021Z" fill="#CCB360"/>
<path fill-rule="evenodd" clip-rule="evenodd" d="M68.5925 47.6115C68.5925 47.6115 68.8063 47.3984 69.1647 47.1072C69.5231 46.816 69.9615 46.4563 70.5823 46.4563C71.6889 46.4563 72.2425 46.6214 72.8639 46.6214C73.4853 46.6022 73.8444 46.4563 73.8444 46.4563C73.8444 46.4563 74.4959 46.912 75.9609 46.912C77.4271 46.9312 78.4076 47.0573 79.1749 47.1251C79.9423 47.193 82.5145 46.912 83.2524 46.9331C83.7333 46.9512 84.2056 47.0669 84.6405 47.273L83.5628 44.1562L82.3109 41.7779L78.7378 37.865C78.7378 37.865 74.4498 35.3408 74.4172 35.3216C74.398 35.3024 72.9317 34.9139 72.9317 34.9139L69.0482 37.2634L65.5244 46.3802L65.4565 48.3002L67.7375 49.3779C68.3103 48.4179 68.942 47.6499 69.534 47.5526C68.9996 47.6109 68.5919 47.6109 68.5919 47.6109L68.5925 47.6115Z" fill="#D5B457"/>
<path fill-rule="evenodd" clip-rule="evenodd" d="M68.5438 48.2624C68.204 48.2816 67.923 48.2138 67.8449 47.9712C67.5537 47.1558 67.3208 47.0394 67.0769 47.0394C66.8331 47.0394 66.5041 47.5635 66.3089 47.6115C66.1137 47.6595 65.8821 47.0099 65.8821 47.0099L65.6683 46.9126C65.6683 46.9126 64.4158 47.728 63.5326 48.6893C62.6494 49.6506 61.2024 51.2819 60.5521 51.5725C59.9019 51.863 57.6683 51.961 56.9041 52.1261C56.14 52.2912 55.2926 52.8448 55.1761 52.9709C55.0597 53.097 55.5166 53.2326 55.5845 53.3587C55.6523 53.4752 54.8363 53.4266 54.7685 53.5507C54.7205 53.648 54.9605 54.201 55.0795 54.4826C55.2878 54.379 55.5164 54.3226 55.7489 54.3174C56.4965 54.2982 57.0405 54.7936 57.9333 54.7936C60.0888 54.7936 62.0401 53.2109 63.4769 52.7251C64.5355 52.3661 65.4481 52.1037 66.0888 51.5213C66.3992 51.2595 66.9528 50.6765 67.4577 49.8125C67.8264 49.2205 68.1861 48.6669 68.5457 48.2592L68.5438 48.2624Z" fill="#D2B257"/>
<path fill-rule="evenodd" clip-rule="evenodd" d="M37.6321 96.311C37.6321 96.311 37.4401 95.5923 35.6609 93.7382C35.156 93.2141 34.8456 92.7782 34.5057 92.4666C33.6609 91.6698 33.1656 91.4566 32.564 91.0003C31.2437 90.0198 29.8069 90.0198 28.7003 88.816C27.5937 87.6122 26.3041 85.312 25.4081 82.9613C24.5249 80.6118 24.2817 79.8643 24.2817 79.7965C24.2817 79.7286 24.5249 79.2723 24.8353 79.3402C25.1457 79.408 25.1457 80.0096 25.2238 80.1555C25.3785 80.3937 25.5539 80.6177 25.748 80.825C26.2043 81.3498 26.8545 81.977 27.1848 82.9126C27.1169 82.1165 26.8449 81.2333 26.8449 81.2333C26.8449 81.2333 28.5537 82.311 30.0097 83.4368C31.476 84.5632 32.0776 84.9517 32.5057 85.6698C32.9339 86.3878 33.9425 88.2816 34.4257 88.8352C34.9089 89.3888 41.5297 91.4758 41.5297 91.4758L44.6792 93.824L46.2427 97.2512L45.019 99.1712L42.6696 99.6762L38.8539 97.9674L37.6321 96.3104V96.311Z" fill="#D2B159"/>
<path fill-rule="evenodd" clip-rule="evenodd" d="M29.1553 84.505C29.1553 84.505 29.9514 85.7766 31.8932 86.9805C33.641 88.039 36.4078 89.0003 38.8743 89.5731C40.2913 89.913 41.7089 90.1747 42.9806 90.1946C46.4078 90.2426 48.7668 89.2627 51.6897 88.9421C53.2724 88.777 55.2142 88.6509 57.2334 88.1741C59.8254 87.5526 61.3594 86.8531 63.4471 85.8701C64.9614 85.1712 66.3502 84.647 67.4759 83.977C69.0586 83.0451 70.2138 82.0064 71.554 81.696C71.3889 82.1523 71.2142 82.9677 69.8938 83.8125C70.5927 83.7926 71.554 83.7446 71.554 83.7446C71.554 83.7446 70.6222 84.2976 68.9812 85.5405C67.9713 86.3085 66.6318 87.6083 65.2628 88.4723C64.379 89.0259 63.4177 89.4323 62.7866 89.7638C61.2506 90.6086 60.6311 91.0355 59.6218 92.0678C59.9809 92.0486 60.0103 92.0678 60.0103 92.0678C60.0103 92.0678 58.738 92.233 57.826 92.7181C57.634 92.7181 57.3012 92.6502 56.7188 92.8154C56.2625 92.9606 55.6602 93.2915 55.0394 93.4656C54.1556 93.728 53.865 93.6115 53.865 93.6115L54.0103 93.9027C54.0103 93.9027 52.8583 93.8829 52.4743 93.9219C52.5422 93.9411 52.523 93.9706 52.523 93.9706C52.4555 93.9819 52.3905 94.0048 52.331 94.0384C52.1462 94.1581 51.9429 94.2466 51.7294 94.3002C51.6129 94.3194 51.5156 94.3194 51.3697 94.3488C51.4183 94.4653 51.7972 95.1168 51.9719 95.5008C51.8266 95.5981 49.6417 97.2486 49.6417 97.2486C49.7094 97.3553 49.7648 97.4693 49.8068 97.5885C49.8746 97.8016 49.9041 98.1126 49.9719 98.2579C50.1364 98.5491 50.2337 98.5978 50.2337 98.5978C50.2337 98.5978 49.9719 98.6464 49.515 98.7629C49.1271 98.8602 48.651 99.0246 47.979 99.1219C47.7728 99.1487 47.5654 99.165 47.3575 99.1706C47.4548 99.3843 47.8817 100.2 47.0951 101.141C46.3086 102.083 46.066 102.22 45.8234 102.821C45.7013 102.729 45.5713 102.647 45.435 102.578C45.1732 102.461 44.8135 102.287 44.6874 102.054C44.6139 102.365 44.5166 102.67 44.3962 102.966C44.1537 103.617 43.7946 104.258 43.7268 104.743C43.4644 104.452 42.9793 103.879 42.3092 103.996C41.6391 104.112 41.1054 105.025 40.9889 105.287C40.9889 105.122 40.8724 104.996 40.8436 105.19C40.8238 105.404 40.4551 107.636 38.3969 109.442C38.3777 108.986 38.3777 107.976 38.329 107.646C38.137 107.838 37.9022 108.122 36.5038 108.724C35.1348 109.325 35.3518 109.928 35.3518 109.928C35.3518 109.928 35.2353 108.968 35.9732 107.956C36.7207 106.947 37.177 106.471 37.177 106.394C37.165 106.315 37.1313 106.241 37.0798 106.18C36.9825 106.083 36.7886 105.966 36.7886 105.889C36.905 105.841 38.0602 105.287 37.9924 104.141C37.9246 103.112 37.4881 102.578 37.177 102.2C37.129 102.151 37.634 101.792 37.5655 101.676C37.5169 101.608 36.8961 101.151 36.818 100.908C36.8363 100.762 36.8689 100.619 36.9153 100.481C36.9831 100.267 37.0318 100.121 37.0126 99.9757C36.9639 99.7331 36.7015 99.063 36.6241 98.9952C36.6919 99.0144 37.177 98.9952 37.177 98.9952C37.177 98.9952 36.7892 98.3738 36.7207 98.0826C36.6522 97.7914 36.507 97.024 36.4295 96.8787C36.5946 96.8979 37.0023 96.9267 37.0023 96.8787C37.0222 96.7328 36.6433 96.4902 36.8103 96.3027C36.9268 96.3219 37.1502 96.4192 37.3633 96.6912C37.2468 96.3802 37.0529 95.7786 36.6446 95.536C36.8366 95.4682 37.4894 95.2928 38.0622 95.6326C38.635 95.9725 38.8302 96.448 38.8302 96.448C38.8302 96.448 39.17 96.7104 39.6948 97.0989C40.2964 97.5744 41.0631 98.2509 42.2868 98.7296C42.5492 98.8755 43.2186 98.8755 43.7044 98.7782C43.9159 98.7278 44.1187 98.6461 44.306 98.5357C44.3736 98.4958 44.4453 98.4632 44.5198 98.4384C44.4154 98.2289 44.2954 98.0276 44.1607 97.8362C44.3258 97.8362 44.5198 97.856 44.5198 97.856C44.5198 97.856 44.6362 97.5936 44.1121 97.088C44.2286 96.9715 44.3745 96.896 44.3745 96.6995C44.2094 96.6803 43.9182 96.4378 43.8503 96.3405C43.947 96.2726 44.0929 96.0493 44.258 95.9814C44.1121 95.865 43.753 95.3792 43.5879 95.3312C43.7457 95.2726 43.8983 95.2011 44.0442 95.1174C44.0442 95.1174 43.2289 94.9037 42.9665 94.729C42.7041 94.537 42.3162 94.2048 42.0833 94.1075C41.8401 94.0102 41.4132 93.9622 41.2385 93.7677C41.403 93.8163 41.6654 93.7677 41.8599 93.7677C42.0052 93.7677 42.0737 93.7869 42.1217 93.7869C42.1025 93.719 42.1025 93.5731 42.4814 93.5251C42.6636 93.4976 42.8404 93.4419 43.0055 93.36C43.0055 93.36 42.6458 93.3408 42.2375 92.9523C41.8292 92.5638 41.49 92.2534 41.257 92.2048C41.0145 92.1562 40.5582 92.3699 40.2766 92.3501C39.8881 92.3021 39.723 92.1075 39.723 92.1075C39.723 92.1075 38.4321 92.224 35.5681 90.4768C33.0919 88.9619 32.0142 87.6224 32.0142 87.6224C31.7824 87.5383 31.5584 87.4342 31.3447 87.3114C30.4129 86.8262 29.1214 85.8163 29.1604 84.4954L29.1553 84.505Z" fill="#C2A44D"/>
<path fill-rule="evenodd" clip-rule="evenodd" d="M64.8737 26.233C65.0983 26.3059 65.2979 26.4405 65.4497 26.6214C65.906 27.1456 66.1972 28.1357 65.1585 29.1942C65.5662 29.3395 65.7345 29.3862 66.0903 29.3395C65.7313 29.767 64.9159 30.6797 64.8673 31.4758C64.8187 32.1261 65.2263 32.3206 65.2263 32.3206C65.2263 32.3206 64.6049 33.0387 64.5761 34.2406C64.8696 33.9097 65.1907 33.6044 65.5361 33.328C66.2548 32.7552 67.2449 32.105 67.915 31.6973C67.9059 31.8682 67.9289 32.0392 67.9828 32.2016C67.9828 32.2016 69.2347 31.1725 70.2868 31.6294C70.7623 31.8432 70.5486 32.5126 70.5486 32.5126C70.5486 32.5126 71.1995 32.2701 71.6558 32.7264C72.1121 33.1827 72.7572 34.3597 73.0881 34.816C73.2334 35.0298 73.6123 35.4374 74.0001 36.0685C74.53 36.952 74.9724 37.885 75.3211 38.8544C75.3403 38.3494 75.4663 37.5635 76.9038 38.0582C78.3406 38.5632 79.9713 39.6218 81.3403 41.7062C82.7092 43.7907 83.0484 46.144 83.7377 47.04C84.4366 47.904 85.1553 49.3408 85.2039 49.943C85.2526 50.5453 84.9902 52.4864 86.427 57.7389C86.8347 56.1082 87.4561 52.4864 87.4561 52.4864L87.7959 49.2922L88.1844 39.4086L77.8638 30.8346L69.7959 24.9798L64.5435 25.4848L64.8731 26.2323L64.8737 26.233Z" fill="#CAA13E"/>
<path fill-rule="evenodd" clip-rule="evenodd" d="M84.0487 40.9414C84.0487 40.9414 83.9028 39.9814 81.4759 38.3494C79.0484 36.7379 77.1553 36.7379 75.4081 35.369C74.0679 34.2912 72.6702 31.815 71.7601 30.9997C70.8762 30.1939 70.731 27.8637 70.731 27.8637L73.7114 25.3677L78.1441 18.9606L81.8913 14.8346L83.6871 17.3306L86.1831 20.2624L87.5713 26.1459L88.0762 34.7578L84.0442 40.9421L84.0487 40.9414Z" fill="#B59544"/>
<path fill-rule="evenodd" clip-rule="evenodd" d="M87.0492 51.264C87.1226 49.958 86.9614 48.6494 86.573 47.4003C85.933 45.4099 84.5346 41.8758 83.885 40.5523C83.6226 39.0861 83.8172 38.9696 84.0988 38.8045C84.3804 38.6394 85.4389 38.0365 86.0188 35.9213C86.5986 33.8061 88.3977 33.737 88.3977 33.737L89.5042 32.9216L91.1842 37.1251L92.6498 40.9216L93.1061 43.8246L93.446 46.3002L92.6498 51.5334L88.7183 55.0867L87.0485 51.264H87.0492Z" fill="#C89D3A"/>
<path fill-rule="evenodd" clip-rule="evenodd" d="M32.1851 109.593V109.485C32.2668 109.434 32.3389 109.369 32.3982 109.293C32.466 109.196 32.5153 109.08 32.5633 109.051C32.6606 109.002 33.1169 108.859 33.3595 108.905C33.602 108.951 34.2433 109.215 34.5831 109.196C35.282 109.177 36.0974 108.643 37.3889 108.886C39.3307 109.245 39.787 110.565 40.9134 111.313C41.6814 111.837 42.4763 111.604 42.5927 111.604H42.8545C42.9031 111.604 43.2622 111.196 43.4567 111.216C43.8452 111.235 43.8836 111.556 44.1262 111.575C44.699 111.643 45.8062 111.284 46.3598 111.43C46.693 111.534 46.954 111.795 47.0587 112.128C47.1751 112.487 47.0779 112.943 46.7963 113.206C46.1947 113.759 45.6219 114.284 45.5054 114.742C45.6535 114.855 45.7958 114.975 45.9316 115.103C41.1279 113.879 36.5061 112.028 32.1851 109.599V109.593Z" fill="#CEB052"/>
<path fill-rule="evenodd" clip-rule="evenodd" d="M83.8833 90.1946C83.8833 90.1946 85.3975 88.1754 85.9223 87.175C86.4465 86.144 84.2622 73.088 84.2622 73.088L88.6507 58.7098L88.5335 54.0301C88.5335 54.0301 88.7473 49.7094 89.2523 47.8355C89.8545 48.9133 91.7284 50.2144 92.1361 50.9037C92.3281 49.5827 92.9803 46.7968 92.8836 43.8259C93.2427 44.3789 94.1067 49.9424 94.1067 49.9424L94.9707 53.6896L96.0971 57.6704L97.3495 61.8746L98.0971 64.7776L98.5239 65.4765L98.8836 66.6995L99.2235 68.0205L100.204 71.1174L100.78 73.6608L101.236 78.2726C101.336 78.6258 101.407 78.9861 101.45 79.3504C101.469 79.8554 101.382 80.1466 101.382 80.2342C101.382 80.3219 101.547 81.3408 101.479 82.1082C101.382 82.8762 101.382 83.4771 100.78 84.0282C100.178 84.5792 99.7995 87.8726 99.7995 87.8726L98.7217 87.1546C98.7217 87.1546 98.9355 86.1734 98.4305 85.2806C97.9255 84.3878 96.9451 84.2029 96.3915 84.3488C95.8385 84.4653 94.7319 84.6394 94.3723 84.9504C94.0324 85.2608 93.1979 86.2221 92.4305 86.6592C91.4705 87.2352 89.9063 87.2806 89.0718 87.4746C88.227 87.6666 87.2951 88.2426 86.314 88.9114C85.5448 89.4094 84.7326 89.8378 83.8871 90.1914L83.8833 90.1946Z" fill="#CCA847"/>
<path fill-rule="evenodd" clip-rule="evenodd" d="M83.8833 111.408C83.8833 111.408 83.9473 111.45 84.0708 111.517C90.9685 108.286 97.1487 103.705 102.247 98.0454C102.191 96.0806 102.119 94.0666 102.039 93.3203C101.875 91.7376 101.991 90.1261 101.943 89.1942C101.894 88.2624 101.37 84.4659 101.127 83.4854C100.865 82.505 100.359 82.0192 100.283 82.0192C100.215 82.039 99.8065 83.8643 99.8065 84.3232C99.8065 84.7821 99.7092 85.8867 99.7092 86.1683C99.6414 86.1485 99.6126 85.9763 99.6126 85.9059C99.5153 86.1485 99.3988 86.576 99.3502 86.6246C99.3015 86.6733 99.418 86.217 99.3502 86.1197C99.2823 86.0224 99.1582 86.071 99.1851 85.8285C99.1966 85.6846 99.2192 85.5419 99.2529 85.4016C99.2529 85.4016 98.9617 85.8285 98.7486 86.9158C98.5348 87.9936 98.5348 88.023 98.4574 88.1197C98.3895 88.2368 98.0011 88.6246 97.9812 88.7706C97.962 89.0323 98.3409 89.2947 98.3697 89.44C98.3889 89.6832 98.0299 90.809 97.9134 91.36C97.7969 91.911 97.8455 92.9907 97.7214 93.5443C97.6241 94.0493 97.5294 94.3405 97.1972 94.5536C97.4398 94.6022 97.6727 94.6701 97.6727 94.6701C97.6727 94.6701 98.0126 96.1069 97.1486 97.3306C96.8382 97.7574 96.7607 97.952 96.4305 98.3405C95.7796 99.0586 95.2747 99.8765 95.226 100.408C95.1924 100.251 95.1698 100.092 95.1582 99.9322C95.1582 99.9322 94.1489 101.107 93.7214 101.777C93.1684 102.641 92.4011 102.593 92.1854 102.806C91.9697 103.02 91.923 103.408 91.9934 103.719C91.8014 103.767 91.4404 103.836 91.1972 104.583C91.0807 104.971 90.7895 105.351 90.3332 105.612C89.8769 105.873 89.3233 105.952 89.0417 106.02C89.2843 106.088 89.3815 106.088 89.498 106.165C89.3527 106.408 88.6827 106.787 87.9351 107.272C87.1876 107.729 86.8279 108.398 86.6436 108.835C86.4516 109.243 86.1681 109.505 85.7118 109.554C85.9038 109.67 86.1879 109.942 86.3332 110.029C86.1195 110.078 85.7572 110.078 85.1102 110.632C84.4305 111.195 84.1975 111.36 83.8865 111.409L83.8833 111.408Z" fill="#C39D3C"/>
<path fill-rule="evenodd" clip-rule="evenodd" d="M70.3743 115.907C70.7461 115.647 71.1487 115.433 71.573 115.272C73.0873 114.67 74.6892 114.554 75.3202 114.36C75.9225 114.168 76.398 113.903 77.1455 113.757C77.1257 113.928 77.109 114.088 77.0911 114.239C74.8873 114.932 72.6431 115.489 70.3711 115.907H70.3743Z" fill="#D2BA6B"/>
<path fill-rule="evenodd" clip-rule="evenodd" d="M98.3038 76.0781C98.3038 76.0781 97.9934 77.7574 97.4398 78.816C96.8862 79.8746 96.2878 81.3402 96.2878 81.3402C96.2914 81.0099 96.3305 80.681 96.4043 80.359C95.7054 80.7667 94.0062 81.7478 93.5243 82.1843C93.068 82.592 92.3006 83.3107 92.1067 83.6506C92.563 82.311 93.0385 81.1072 93.1166 80.5536C92.4177 81.0586 89.155 83.7478 87.4564 85.5245L82.1649 89.8061C81.5543 90.1355 80.9254 90.4299 80.2814 90.688C79.3694 91.0758 78.2916 91.4061 77.4955 91.7171C77.7092 91.1443 78.0484 90.6387 78.5246 90.1536C79.0296 89.6781 80.5438 88.0371 80.7768 87.2736C80.9905 86.4774 81.0392 86.0019 80.7576 85.3318C80.4952 85.3997 79.8936 85.4291 79.4859 85.5456C79.0782 85.6621 78.6411 86.0986 78.6411 86.0986C78.6411 86.0986 78.9515 84.3219 79.6216 82.6426C79.1166 82.6618 78.2526 82.807 78.2526 82.807C78.2526 82.807 79.4564 80.7878 81.5166 79.3805C80.8857 79.5148 80.2683 79.7063 79.6721 79.9526C78.4683 80.4576 77.148 81.2051 76.1675 81.6128C76.7204 80.8448 80.604 75.3024 82.915 70.137C85.219 64.9818 86.0798 63.6614 86.5848 60.8947C86.8465 59.5258 86.7768 57.5027 86.8465 55.6909C86.9144 53.8944 87.1377 52.2829 86.9924 51.2051C87.594 51.9526 89.8468 54.0595 89.9243 58.7686C89.9921 63.4771 87.7694 69.8368 85.4097 73.2634C85.9857 73.4285 87.4782 73.623 89.0116 70.9594C90.5451 68.2957 90.5265 67.552 91.0801 66.4448C91.148 66.9984 91.1281 67.1923 91.1281 67.1923C91.1281 67.1923 93.3617 64.4838 94.4196 61.0758C94.6334 62.5421 95.2644 63.8336 94.2737 66.5229C93.3905 68.9498 92.2353 69.5424 92.2353 69.5424C92.2353 69.5424 92.8081 69.4451 93.6523 68.9402C93.7982 69.2992 93.7694 69.7082 94.012 69.8528C94.2545 69.9974 94.5848 70.2413 94.6334 70.4742C94.8952 70.0858 95.3028 69.5904 95.4296 69.2218C95.3323 69.9898 95.2644 73.3478 95.6216 75.0566C96.3697 74.9888 97.1364 74.9402 97.6606 73.5904C97.3016 74.9114 97.3016 75.7069 97.5441 76.8333C97.9422 76.5619 98.3012 76.0762 98.3012 76.0762L98.3038 76.0781Z" fill="#C0993A"/>
<path fill-rule="evenodd" clip-rule="evenodd" d="M73.0778 22.5632C73.0778 22.5632 72.3303 22.8736 71.0586 22.8736C69.952 22.8736 70.2624 22.4467 68.5344 22.4467C65.8746 22.4467 56.5831 23.9827 54.9517 23.961C53.8932 23.9418 58.5242 24.4173 58.5242 24.4173L70.3597 24.5824L72.738 24.3904L73.6218 22.592L73.0778 22.5632Z" fill="#A88F33"/>
<path fill-rule="evenodd" clip-rule="evenodd" d="M42.3882 45.6992C42.3882 45.6992 40.8734 46.8544 40.2327 47.7382C39.5921 48.6221 39.2522 49.2038 38.5239 49.9226C38.6949 49.9291 38.8657 49.9061 39.0289 49.8547C39.0289 49.8547 39.0289 50.0467 38.9124 50.0973C39.1163 50.0745 39.3195 50.145 39.4654 50.2893C39.2516 50.4058 38.6692 50.9888 39.1255 51.6781C39.4654 52.2022 40.1841 52.2502 40.1841 52.2502C40.1841 52.2502 40.019 52.7264 40.7082 52.6778C42.1937 52.6099 43.8538 51.959 44.6206 52.1242C45.3886 52.3162 45.825 52.3866 46.3684 53.3286C46.9444 54.2605 47.4462 54.4064 47.4462 54.4064C47.4462 54.4064 47.786 53.5418 47.7086 52.2509C47.9872 51.5551 48.1417 50.8157 48.1649 50.0666L47.6599 46.3482L45.4564 43.5616L42.602 45.1443L42.3882 45.6973V45.6992Z" fill="#E3C571"/>
<path fill-rule="evenodd" clip-rule="evenodd" d="M45.0972 45.1456C45.0972 45.1456 45.3109 45.6506 46.2044 45.6986C46.1071 45.9123 46.1071 45.9418 46.1365 46.1062C46.1557 46.2714 46.1845 46.5139 46.1845 46.5139C46.2829 46.4663 46.3718 46.4013 46.4469 46.3219C46.4956 46.5357 46.3983 46.8749 46.4469 47.1181C46.4769 47.266 46.5258 47.4095 46.5922 47.545C46.6064 47.5118 46.6226 47.4795 46.6408 47.4483C46.66 47.3997 46.8328 47.9725 47.3109 48.4083C47.3105 48.3413 47.327 48.2753 47.3589 48.2163C47.3663 48.3381 47.4065 48.4555 47.4754 48.5562C47.4396 48.5391 47.407 48.5162 47.3788 48.4883C47.3788 48.4883 47.4268 50.0243 47.6892 50.8186C47.733 50.7672 47.772 50.712 47.8056 50.6534C47.8056 50.6054 47.7864 51.081 47.7378 51.4214C47.67 51.7613 47.7186 52.2368 47.7186 52.2368C47.8937 52.099 48.086 51.9847 48.2908 51.897C48.582 51.7798 49.0588 51.4208 49.3493 50.6246C49.5179 50.1738 49.6478 49.7094 49.7378 49.2365C49.8317 49.4172 49.8965 49.6116 49.9298 49.8125C49.9496 50.055 50.406 49.929 50.406 49.929L50.5032 48.8704L51.0792 46.4723L51.6034 44.9869L54.1276 41.0554L58.6882 37.543L62.669 38.4557L66.0277 33.8925L60.2415 30.4166L54.7656 30.9894L49.796 37.8726L45.8159 44.1158L45.0972 45.145L45.0972 45.1456Z" fill="#D8B65B"/>
<path fill-rule="evenodd" clip-rule="evenodd" d="M73.7765 35.1846C73.7765 35.1846 73.4367 35.2525 72.4562 35.7606C71.4757 36.2688 70.7961 36.4301 70.4172 37.1776C70.0383 37.9251 70.0095 38.5178 70.0095 38.5178C70.0095 38.5178 70.6796 38.2266 71.0681 38.1293C71.4757 38.0326 71.9321 38.0614 71.8834 38.2266C71.8367 38.3398 71.7719 38.4446 71.6914 38.537C71.6914 38.537 72.4594 38.5178 72.4389 38.8966C72.4185 39.2755 72.2937 39.6928 72.1484 39.8771C72.0025 40.0691 71.4009 40.3533 71.333 40.5766C71.1679 41.033 71.4009 41.0522 71.3132 41.4208C71.2453 41.7805 70.9253 42.4794 69.8764 43.7024C68.7986 44.9261 68.3404 45.7901 68.3404 45.7901C68.3404 45.7901 67.8162 44.8096 67.5442 43.9648C67.3522 44.0614 66.3212 44.6342 66.3212 44.6342L63.9327 36.3142L63.9807 35.7606C63.9807 35.7606 64.1945 35.4989 64.2431 35.0131C63.8841 34.8966 63.8354 34.7994 63.3593 34.3437C62.8831 33.888 62.4953 33.3338 61.6997 32.9549C61.5833 32.7411 61.4373 32.4506 60.8549 32.3334C60.2725 32.2163 59.9231 32.1203 59.9231 32.1203C59.9231 32.1203 60.2335 32.0032 60.3794 31.7606C60.0197 31.8093 59.7292 31.9258 58.9426 31.9066C58.1465 31.8867 58.0588 31.8579 57.6223 31.9258C57.1858 31.9936 56.6623 32.1882 56.4671 31.5181C56.2533 31.353 55.797 31.4989 55.4085 32.071C55.0201 32.6432 54.8844 33.1002 54.1369 33.3235C54.0843 33.653 53.9689 33.9694 53.797 34.2554C53.5833 34.615 53.2434 34.9741 52.7871 35.5078C52.0684 36.3526 52.1849 37.7408 51.0393 38.7994C49.8841 39.8573 51.2313 35.8669 51.2313 35.8669L53.0757 31.4509L58.3282 26.3149L66.4837 25.7619L67.2799 29.9859L71.2607 31.3549L73.7753 35.1898L73.7765 35.1846Z" fill="#D3AE4D"/>
<path fill-rule="evenodd" clip-rule="evenodd" d="M75.0683 36.1165L71.6411 31.175L69.243 29.3299C69.243 29.3299 67.5342 26.185 67.4177 26.0877C67.3205 26.0198 65.7089 25.8451 64.6798 25.7773L64.8718 26.2528C65.0964 26.3258 65.296 26.4604 65.4478 26.6413C65.9041 27.1654 66.1953 28.1555 65.1566 29.2141C65.5643 29.3594 65.7326 29.4061 66.0885 29.3594C65.7294 29.7869 64.9141 30.6995 64.8654 31.4957C64.8168 32.1459 65.2245 32.3398 65.2245 32.3398C65.2245 32.3398 64.603 33.0586 64.5742 34.2598C64.8677 33.9289 65.1889 33.6236 65.5342 33.3472C66.2529 32.7712 67.243 32.1235 67.9131 31.7158C67.904 31.8869 67.927 32.0582 67.9809 32.2208C67.9809 32.2208 69.2328 31.1917 70.2849 31.648C70.7605 31.8618 70.5467 32.5318 70.5467 32.5318C70.5467 32.5318 71.1976 32.2893 71.6539 32.7456C72.1102 33.2019 72.7605 34.3763 73.0907 34.8333C73.236 35.047 73.6149 35.4547 74.0027 36.0851C74.5327 36.9688 74.9751 37.902 75.3237 38.8717C75.3429 38.4832 75.4209 37.9398 76.0917 37.9398L75.0721 36.1146L75.0683 36.1165Z" fill="#CAA13E"/>
<path fill-rule="evenodd" clip-rule="evenodd" d="M23.6898 50.1555C23.6898 50.1555 23.4473 49.5533 23.6898 48.3789C23.9324 47.2045 24.3113 46.6509 24.4374 44.9229C24.5634 43.1949 25.6898 41.0394 25.6898 41.0394L28.806 39.6224L31.0102 40.224L31.6604 43.1757L28.8738 44.7117C28.8738 44.7117 28.7286 45.3619 27.942 45.8861C27.1554 46.4102 26.0681 46.8179 25.8063 47.3523C25.6498 47.6796 25.5356 48.0254 25.4665 48.3814C25.4665 48.3814 24.6703 48.2163 24.1948 48.7405C23.6898 49.2749 23.709 49.7504 23.6898 50.1581V50.1555Z" fill="#F4EFC8"/>
<path fill-rule="evenodd" clip-rule="evenodd" d="M29.9806 49.369C29.9806 49.369 29.7182 49.5341 29.5243 49.945C29.3323 49.6346 28.8734 47.7894 28.8542 46.1293C28.835 44.4691 28.7358 44.0576 29.1198 43.4854C29.5038 42.9133 31.0097 42.3104 30.7959 41.28C30.5822 40.2995 29.6887 39.8918 28.5918 40.1734C27.8238 40.3654 27.2523 41.9987 26.4561 42.8141C25.8539 43.4355 25.1358 43.3382 24.9419 43.6781C24.6795 44.1344 24.922 44.5907 24.8446 44.8819C24.8247 44.9792 24.5822 45.5034 24.1451 46.1344C23.2619 47.4061 21.7668 49.2026 21.5723 50.8141C21.6401 49.9014 21.5921 49.8822 21.8347 48.8723L21.6887 48.6298L22.6487 45.4842L23.2702 42.8922L24.659 38.5517L27.1051 34.1152L29.4839 31.4547L31.9595 31.6198L32.2507 35.3382L33.6683 42.3194L36.6487 45.9891L31.8718 49.2038L29.9787 49.369H29.9806Z" fill="#EBCC73"/>
<path fill-rule="evenodd" clip-rule="evenodd" d="M31.4662 50.688C31.4662 50.688 31.0585 50.7853 30.9126 50.7078C30.7667 50.6304 30.622 50.5427 30.67 50.4454C30.718 50.3482 30.9804 50.1837 30.9804 50.1056C30.9916 49.9589 30.8842 49.8299 30.7379 49.8144C30.5145 49.7856 30.4467 49.9309 30.4467 49.9309C30.4467 49.9309 30.2329 49.7664 30.0588 49.7389C30.1618 49.7263 30.2655 49.7197 30.3692 49.719C30.1009 49.5975 29.8163 49.5158 29.5244 49.4765C29.767 49.3312 30.2431 48.9037 30.5535 48.9037C30.8639 48.9037 31.0585 48.8557 31.0099 48.6906C30.9612 48.5254 30.7187 48.2829 30.4569 48.1856C30.5535 48.0691 30.622 47.8944 30.3891 47.4176C30.1459 46.9421 30.2431 46.6214 30.3212 46.5056C30.3891 46.3597 30.6316 46.0979 30.7481 45.9328C30.8646 45.7677 30.9619 45.5443 31.1558 45.4278C31.2531 45.36 31.5635 45.2358 31.8745 45.1174C32.2143 45.001 32.4959 44.855 32.6899 45.001C32.9036 45.1462 32.8063 45.3408 32.8063 45.3408C32.8063 45.3408 33.4764 45.0976 34.078 45.4086C34.6803 45.6992 36.1465 45.8842 36.1465 45.8842L36.6719 46.9427L33.1961 49.9232L31.7593 50.6419L31.4681 50.6899L31.4662 50.688Z" fill="#E5C66B"/>
<path fill-rule="evenodd" clip-rule="evenodd" d="M36.2913 45.8157C36.2913 45.8157 35.2135 46.5344 34.971 46.7962C35.1162 46.816 35.3588 46.9133 35.2615 47.0586C35.145 47.2038 34.4462 47.7088 34.0577 48.185C33.65 48.6605 33.2615 49.2627 33.1258 49.5539C32.9806 49.8157 31.8734 50.583 31.4951 50.6797C32.2913 50.6797 33.8932 49.6992 34.4948 49.6992C34.4756 49.9904 34.6599 50.3206 34.9998 50.3494C35.3396 50.3782 36.3201 50.5632 37.6404 49.7478C38.9607 48.9517 38.5242 48.359 39.0772 47.9712C40.1358 47.2717 40.5626 46.6502 41.145 46.2624C41.7274 45.8746 42.0289 45.7862 42.0289 45.7862C42.0289 45.7862 42.0481 45.495 42.2209 45.5245C42.3173 45.5355 42.3996 45.5991 42.4346 45.6896C42.4346 45.6896 43.4446 44.9709 44.7386 44.777C44.7084 44.7635 44.6843 44.7393 44.6708 44.7091C44.6708 44.7091 44.7674 44.6605 44.7873 44.6118C44.7873 44.6118 44.8551 44.5146 44.9038 44.5632C44.9524 44.6118 45.0202 44.9709 45.1175 45.1168C45.3313 45.0195 45.739 44.1069 45.739 44.1069L46.7201 41.3011V38.7379L45.9521 38.8838L40.1921 41.3299L36.6964 44.9517L36.2887 45.8157H36.2913Z" fill="#E6BD62"/>
<path fill-rule="evenodd" clip-rule="evenodd" d="M52.8735 33.2429C53.1851 33.1673 53.4838 33.0461 53.7599 32.8832C53.6434 33.1942 53.6434 33.5341 53.1385 34.272C52.6335 35.0099 52.6143 35.1168 52.2066 35.8835C51.7989 36.6797 51.7503 37.8253 51.3618 38.3296C51.5359 38.245 51.7227 38.1894 51.9148 38.1651C51.9148 38.1651 51.5269 38.505 51.3618 38.864C51.1967 39.223 50.9055 39.9706 50.1874 40.4275C49.4693 40.8845 48.5561 41.175 47.5756 42.2528C46.5945 43.3107 45.5852 44.6509 45.0796 45.1328C45.342 44.6765 45.701 43.7638 45.7983 43.1622C45.8956 42.5606 45.7785 41.8413 45.9436 41.0458C46.1087 40.2502 46.1087 39.6768 46.9036 38.288C47.6985 36.8992 49.0591 32.0742 49.0591 32.0742L51.9909 31.1424L52.8748 33.2397L52.8735 33.2429Z" fill="#B6933F"/>
<path fill-rule="evenodd" clip-rule="evenodd" d="M50.7569 31.4662C50.7569 31.4662 49.8737 32.7379 49.6312 33.8643C49.3886 34.9907 49.6113 34.8934 49.466 35.447C49.3792 35.7846 49.3792 36.1386 49.466 36.4762C49.7719 35.9834 50.1907 35.5705 50.6878 35.2717C51.523 34.7674 52.2027 34.4077 52.6078 33.9808C53.0155 33.5245 53.3553 32.777 54.2385 32.2042C53.8795 32.1555 53.3745 31.9904 53.2785 32.0122C53.6382 31.6045 54.7153 30.983 55.8027 30.2355C56.8804 29.4675 56.8126 29.1578 58.5604 28.391C57.9876 28.4883 57.7156 28.3424 57.2395 28.391C57.4315 27.9834 58.1035 27.7888 58.7755 27.1194C59.4475 26.4499 58.3486 25.4592 58.3486 25.4592L53.2286 28.5562L50.7531 31.4688L50.7569 31.4662Z" fill="#C49937"/>
<path fill-rule="evenodd" clip-rule="evenodd" d="M36.8638 29.1552L36.9802 28.2234L38.4465 25.8739L39.9806 21.7478V16.1069L39.8641 12.8448L40.1066 10.7085L40.291 10.0294L40.4855 9.76704L41.7374 10.4173L43.466 12.7667L43.6311 17.3011L41.9511 24.4563L37.155 29.6896L36.8638 29.1552Z" fill="#DFC068"/>
<path fill-rule="evenodd" clip-rule="evenodd" d="M40.6796 9.50464C40.6796 9.50464 39.9116 9.52448 39.7478 12.7187C39.5839 15.913 39.5046 17.5923 39.3881 19.175C39.2716 20.7578 39.0002 21.7184 38.8639 22.6509C38.7276 23.5834 38.6502 24.8544 38.2137 25.6314C38.0217 25.9904 37.6114 27.1168 36.6502 27.9616C35.5724 28.8934 33.9622 29.5443 33.7183 29.593C33.2908 29.6896 31.1257 29.9034 30.2425 30.3891C29.9321 30.5542 29.3977 30.7482 28.8057 31.3018C27.6306 32.3597 26.0678 34.2528 24.9414 36.5344C23.2134 39.9424 21.4854 49.5635 21.4854 49.5635L21.8738 48.9133C21.8738 48.9133 21.9225 48.0493 22.7865 46.5344C23.6313 45.0202 23.3887 43.321 24.5631 40.4179C25.0194 39.3114 25.5922 37.8746 26.2911 36.6509C27.3983 34.6605 28.7378 32.9517 30.0876 32.0198C32.2911 30.5056 34.7186 30.1754 34.7186 30.1754L37.3305 28.4474C37.3305 28.4474 37.7868 27.5642 38.389 26.5542C39.2332 25.1373 40.309 23.5546 40.5439 21.2538C40.9036 17.8458 40.039 15.6128 40.0876 13.5936C40.1362 11.5744 40.1554 10.089 40.5638 9.72928C40.9721 9.3696 40.6802 9.50592 40.6802 9.50592L40.6796 9.50464Z" fill="#A88F33"/>
<path fill-rule="evenodd" clip-rule="evenodd" d="M40.6795 24.7475C40.6795 24.7475 41.8315 21.9123 42.3589 19.3978C42.4561 18.8928 42.6501 18.3885 42.6987 17.9808C42.9413 15.6019 43.0091 14.6214 42.6987 13.3203C42.4561 12.3603 41.5243 11.495 41.0385 10.8243C40.563 10.1248 40.3397 9.86432 40.4369 9.71712C40.5342 9.56992 40.9125 9.32928 41.2811 9.35808C42.073 9.38113 42.8207 9.72817 43.3496 10.3181C44.0971 11.1821 44.6891 14.1146 44.6891 14.1146L45.3118 17.984L46.8945 22.8576L40.6808 24.7514L40.6795 24.7475Z" fill="#C99E3D"/>
<path fill-rule="evenodd" clip-rule="evenodd" d="M51.5045 21.7965C51.5045 21.7965 51.2907 21.8931 50.9029 21.7965C50.9366 22.1196 50.7866 22.4345 50.5144 22.6118C50.1067 22.4467 46.2904 22.777 46.2904 22.777C46.2904 22.777 44.5138 22.4659 43.9602 20.1165C43.5723 18.553 44.2514 16.3981 44.028 14.9805C43.6882 12.8928 43.2126 12.4845 43.164 11.8349C43.1154 11.1853 43.0667 11.0195 43.0667 10.6118C42.853 10.5632 42.7269 10.4954 42.5138 10.4954C42.4651 10.3034 42.5618 10.1357 42.3486 9.79584C42.4651 9.84448 43.2613 9.94176 44.1931 10.825C44.9611 11.5437 44.9611 11.8054 45.077 11.9514C45.2222 12.0966 46.3973 13.1034 46.9022 14.1069C47.4072 15.1104 48.3877 18.3104 48.611 18.8346C48.6789 19.0483 48.8248 19.2621 49.187 19.7472C49.7502 20.4467 50.5752 21.6032 51.507 21.7952L51.5045 21.7965Z" fill="#B58634"/>
<path fill-rule="evenodd" clip-rule="evenodd" d="M45.2139 12C45.802 12.9501 46.3304 13.9359 46.7959 14.9517C47.3687 16.2426 47.7086 17.3011 48.4273 18.1651C48.0388 17.0394 47.3495 14.8256 46.9419 14.039C46.4855 13.207 45.5537 12.311 45.2139 12.0006V12Z" fill="#A88F33"/>
<path fill-rule="evenodd" clip-rule="evenodd" d="M38.6117 27.9616C38.6117 27.9616 37.6312 28.2042 35.8059 29.1654C35.2037 29.4758 34.6315 29.7376 34.0779 29.9808C32.6398 30.631 31.0974 31.232 29.8738 31.5635C29.971 31.68 30.019 31.728 30.019 31.728C30.019 31.728 30.019 32.2042 30.2814 32.4755C30.1362 32.6214 28.1938 33.9418 28.7672 38.359C29.155 38.2138 29.6114 38.0192 29.6792 38.0192C29.7963 38.039 29.8251 38.359 29.9704 38.359C30.1157 38.359 30.5918 38.167 31.0968 37.5142C31.0776 37.7766 30.7864 40.4173 32.3493 42.1939C32.6405 41.8541 33.3784 40.7277 33.3784 40.7277L33.3976 40.3686C33.3976 40.3686 33.4654 39.1162 33.8738 37.9706C34.2821 36.825 35.0776 35.9802 35.0776 35.9802L39.2318 30.048L38.6104 27.961L38.6117 27.9616Z" fill="#E6C367"/>
<path fill-rule="evenodd" clip-rule="evenodd" d="M34.7282 36.672C34.538 36.8064 34.3285 36.9111 34.1068 36.9824C34.0389 36.7398 33.9417 35.9046 34.5145 35.0893C35.1845 34.1082 36.6501 32.8365 37.0578 31.8253C37.3202 31.1744 37.2037 29.5437 39.534 27.456C41.8642 25.3683 42.7762 24.6502 42.7762 24.6502L46.5433 22.7571L51.1743 24.5824L48.8735 33.6L47.0873 37.824L39.9833 36.4845L34.7276 36.672H34.7282Z" fill="#DCBA5A"/>
<path fill-rule="evenodd" clip-rule="evenodd" d="M37.4399 34.2234L38.3238 33.1168V32.3302C38.3238 32.3302 39.3043 32.0678 40.3622 30.9901C41.4201 29.9123 42.8863 27.8445 44.1779 27.9706C45.4694 28.1165 45.5955 30.7763 45.6441 31.5245C45.6927 32.2726 45.8579 33.9706 46.1196 34.8838C46.4108 35.7965 42.974 39.2525 42.974 39.2525L40.6399 41.0291L37.4399 34.2234Z" fill="#E9CE77"/>
<path fill-rule="evenodd" clip-rule="evenodd" d="M40.1748 43.4368C40.1748 43.4368 40.8935 42.3104 40.3668 42.0678C40.6772 41.369 41.25 40.631 41.25 40.631C41.25 40.631 41.6577 39.6218 42.978 38.3789C44.2983 37.136 45.1143 36.3104 45.3281 35.4758C45.4599 34.9319 45.5315 34.3752 45.5418 33.8157C45.6846 33.9323 45.8373 34.0362 45.9982 34.1261C46.2119 34.2234 47.2212 35.0579 47.0759 36.7379C46.9306 38.4179 46.3079 39.1168 46.3079 39.1168C46.3079 39.1168 45.7063 39.7184 45.2794 40.0294C44.8225 40.3398 44.658 40.6989 43.8906 40.7283C43.9695 40.6656 44.0582 40.6163 44.153 40.5824C44.153 40.5824 43.3569 40.4858 42.9294 40.8736C42.5018 41.2614 41.593 42.4563 41.1367 42.816C40.6804 43.1072 40.1767 43.4374 40.1767 43.4374L40.1748 43.4368Z" fill="#CDAE50"/>
<path fill-rule="evenodd" clip-rule="evenodd" d="M72.4561 24.553C71.3091 24.1349 70.1036 23.8991 68.8836 23.8541C66.8446 23.7862 63.8641 23.9027 60.9418 23.9219C57.7962 23.9411 54.9418 22.8442 50.9809 22.6502C50.3306 22.2618 48.6769 20.5626 43.5146 24.1645C43.825 24.1453 47.2625 23.3683 48.4561 24.864C49.6599 26.3494 49.3201 28.8736 49.1556 29.4752C48.8446 30.8154 47.8346 32.7667 47.4276 34.1357C47.0206 35.5046 47.1166 36.224 46.8254 37.184C46.5342 38.144 45.8935 38.6208 46.2718 39.7274C46.7767 39.417 47.0398 39.417 47.8833 37.5238C48.7268 35.6307 48.5534 34.281 49.9518 32.679C51.3207 31.0675 53.5998 28.8634 54.4663 28.3098C55.3329 27.7562 62.2135 24.1837 69.418 27.5917C71.1556 27.4074 72.4567 24.5523 72.4567 24.5523L72.4561 24.553Z" fill="#D2A83E"/>
<path fill-rule="evenodd" clip-rule="evenodd" d="M46.4173 23.232C46.4101 23.159 46.394 23.0872 46.3693 23.0182C46.3019 22.8763 46.2134 22.7453 46.1069 22.6298C46.1069 22.6298 44.3981 22.3194 43.5341 22.416C42.0192 22.5811 40.6502 24.455 40.0096 25.4163C39.3689 26.3776 38.5728 27.8624 37.7088 28.6298C37.7182 28.555 37.701 28.4793 37.6601 28.416C37.6601 28.416 37.7088 28.4838 37.6121 28.5811C37.5155 28.6784 37.5149 28.7264 37.5635 28.7731L37.7094 28.9184C37.7574 28.9184 39.0976 28.3162 40.9229 26.6144C42.8646 24.8378 44.3501 23.9264 45.127 23.6141C45.5414 23.438 45.9745 23.3098 46.4179 23.232H46.4173Z" fill="#C29637"/>
<path fill-rule="evenodd" clip-rule="evenodd" d="M79.5637 15.9322C79.5637 15.9322 79.2527 16.32 78.8642 16.7475C78.0002 17.6602 76.8738 18.6886 75.9125 19.7472C75.0005 20.7571 73.9714 21.5437 72.8156 22.864C71.6597 24.1843 70.3196 25.6499 69.9804 26.0774C69.67 26.505 69.4274 27.2038 69.4274 27.5629C69.2623 27.4464 69.0684 27.3203 69.0684 27.3203C69.15 27.4727 69.2476 27.6161 69.3596 27.7478C69.6021 28.0877 69.9804 28.5158 70.1749 28.777C70.4136 29.1094 70.5849 29.4853 70.6792 29.8835C70.7957 29.9027 71.5432 30.0486 72.4757 28.5146C73.4082 26.9805 74.6306 25.3011 74.6306 25.3011L76.5724 22.4173L77.796 19.9712L79.332 17.2333L79.5656 15.9322H79.5637Z" fill="#AC8132"/>
<path fill-rule="evenodd" clip-rule="evenodd" d="M81.5541 13.9712C81.5541 13.9712 80.379 14.9312 79.9227 15.5072C79.4664 16.0832 78.3867 17.5949 78.3867 17.5949L78.7752 17.5462L80.7464 15.799L81.5144 14.4301L81.5534 13.9738L81.5541 13.9712Z" fill="#A88F33"/>
<path fill-rule="evenodd" clip-rule="evenodd" d="M81.1941 91.1264C81.1941 91.1264 81.1749 90.3302 81.6216 89.8547C82.0779 89.3786 83.2331 88.6797 84.3595 86.0582C85.4859 83.4368 85.6114 82.8448 85.6114 82.8448C85.6114 82.8448 83.5922 84.5728 82.3474 84.9805C82.6386 84.3782 82.8037 83.9514 82.9496 83.6403C82.7845 83.495 82.0856 83.3299 82.0178 83.2525C82.4056 82.864 82.6194 81.9123 83.4059 81.2813C84.4158 80.5133 86.2603 79.1936 87.6939 78.0173C89.1275 76.841 91.9461 74.105 92.3058 73.3088C92.5195 73.6192 92.5675 73.8131 92.5675 73.8131C92.5675 73.8131 91.1506 75.6582 90.4126 76.8326C89.7618 77.8426 89.8104 78.4154 89.8104 78.4154L91.1506 77.8394C91.1506 77.8394 91.5384 79.2762 89.7816 81.4611C90.5496 81.1699 90.8594 81.3446 91.2958 81.1014C90.5771 81.5584 89.587 82.1798 88.6552 83.888C87.7426 85.5968 86.4997 87.5872 84.403 88.8294C82.364 90.1402 81.189 91.1206 81.189 91.1206L81.1941 91.1264Z" fill="#A67A2E"/>
<path fill-rule="evenodd" clip-rule="evenodd" d="M75.9324 25.5635C75.9324 25.5635 75.1362 27.223 75.0198 28.5146C75.0006 28.8256 74.9225 29.0682 74.9225 29.4272C74.9033 30.5824 74.9903 31.8739 74.7305 32.4755C74.6332 32.233 74.5846 32.0678 74.4873 31.9712C74.342 32.3789 74.0796 33.6506 73.8658 34.1261C73.7692 33.8157 73.5554 32.7379 73.5753 31.4662C73.5951 30.1946 73.6233 29.9514 73.6233 29.6896C73.5753 30.0774 73.3129 30.6022 73.2156 30.9126C73.0703 30.6509 72.9052 30.311 72.7106 30.0294C72.5942 30.2214 72.4489 30.505 72.3228 30.6509C72.303 30.5344 72.255 30.2234 72.2255 29.7869C72.2063 29.2819 72.1769 28.6317 72.2063 28.4954C72.2543 28.2336 72.6626 27.2045 73.5266 26.2624C74.5558 25.136 75.6143 22.9715 75.9247 22.3014C76.2351 21.6314 77.5554 18.8454 77.5554 18.8454H78.5654L77.0991 22.185C77.0991 22.185 76.2159 24.0102 75.7596 24.681C75.3033 25.3517 74.342 27.2736 73.9145 28.0211C74.2249 27.6134 74.4873 27.3997 74.7983 27.0112C75.0991 26.7392 75.9337 25.5648 75.9337 25.5648L75.9324 25.5635Z" fill="#8C6228"/>
<path fill-rule="evenodd" clip-rule="evenodd" d="M81.573 13.8445C81.408 14.3522 81.1473 14.8236 80.805 15.2333C80.2028 15.952 78.9112 16.9126 78.2808 17.6794C77.7048 18.4269 76.5528 20.4659 77.0764 22.8832C77.2684 22.359 77.63 21.3203 78.5912 20.1453C79.5525 18.9702 80.5816 17.6211 81.0872 16.5728C81.5916 15.5142 81.6594 14.6797 81.6594 14.6797L81.8514 14.4371L81.7349 13.8835L81.5698 13.8445L81.573 13.8445Z" fill="#CBA94C"/>
<path fill-rule="evenodd" clip-rule="evenodd" d="M101.233 78.2426C101.233 78.2426 100.845 77.1846 100.729 76.2234C100.612 75.2621 100.921 75.0714 100.563 73.9712C100.35 73.3011 99.9618 73.3952 99.8645 73.3011C99.7672 73.207 99.6994 72.1946 99.7186 71.641C99.7378 71.0874 99.6994 70.3693 99.6021 70.0582C99.4568 69.9418 99.3596 69.8445 99.1458 69.1264C98.9032 68.4077 98.7868 68.0486 98.6703 67.8355C98.5538 67.6224 98.2133 67.4278 98.2133 67.2141C98.2133 66.7866 98.6018 66.5638 98.6018 66.4461C98.5826 66.2035 98.2914 66.3981 98.2133 66.3296C98.1167 66.2131 98.4565 65.5142 98.3304 65.417C98.2818 65.369 97.942 65.7766 97.8543 65.6602C97.757 65.543 97.6405 64.3878 97.4658 63.6211C97.3013 62.8736 97.126 62.3302 97.1068 62.1069C97.0876 61.8931 95.7666 58.1261 95.4466 57.2134C95.1887 56.4423 94.9717 55.658 94.7964 54.864C94.6991 54.4077 94.6312 53.4752 94.5826 53.5725C94.534 53.6698 94.5634 54.1453 94.4853 54.1261C94.4175 54.1062 94.1749 52.4467 94.0975 52.1843C94.0296 51.9219 93.6213 51.0323 93.5215 50.3885C93.4242 49.7376 93.2111 48.0384 93.0652 46.8832C92.9192 45.728 92.8514 45.2525 92.8514 44.9632C92.8753 44.2557 92.8363 43.5474 92.7349 42.8467C92.5429 41.623 92.1589 40.1376 91.8223 39.2742C91.172 37.6429 89.4434 33.4682 89.1343 32.4294C89.1343 32.167 89.4741 32.313 89.4741 32.313C89.4741 32.313 90.3183 34.4294 90.9397 36.0602C91.542 37.6915 92.1148 39.1283 92.2607 39.2742C92.3772 39.4195 93.2898 41.0214 93.6975 43.6429C94.1052 46.2643 94.2504 48.6816 94.4936 50.2931C94.6101 51.0611 94.7074 51.8758 94.95 52.6912C95.2117 53.575 95.6194 54.4877 96.1538 55.8854C96.6101 57.0605 96.95 58.041 97.1343 58.8858C97.348 59.9635 97.348 60.7789 97.4741 61.3133C97.5912 61.7696 97.7653 62.6816 98.1736 64.0013C98.582 65.321 99.1829 67.0208 99.5906 68.0787C100.387 70.1952 100.743 71.9622 100.863 72.9043C100.969 73.8752 101.329 77.2346 101.232 78.2438L101.233 78.2426Z" fill="#A88F33"/>
<path fill-rule="evenodd" clip-rule="evenodd" d="M81.6217 13.728L81.5731 13.8445C81.5731 13.8445 81.7184 13.8931 81.6896 14.0877C81.6916 14.3539 81.6754 14.6199 81.6409 14.8838C81.5929 15.2237 81.4956 15.4854 81.4764 15.6992C81.4764 16.1555 81.5443 16.6797 80.9004 17.9808C80.7084 18.3398 80.59 18.6502 80.4928 18.864C80.2502 19.3882 80.2016 19.4662 79.9878 19.7088C80.3276 19.5168 81.5513 18.7488 82.1721 18.864C81.7452 19.1066 81.0944 19.5827 80.6867 20.2042C80.784 20.2234 81.1916 20.3014 81.8387 20.2042C82.9164 20.039 84.1203 19.6506 85.1782 19.728C86.334 19.7958 85.8777 18.3398 85.8777 18.3398L84.544 15.408L82.0198 13.632L81.6217 13.7286V13.728Z" fill="#BE9C44"/>
<path fill-rule="evenodd" clip-rule="evenodd" d="M88.2041 35.6896C88.2041 35.6896 87.0777 34.5632 86.6214 30.6976C86.1651 26.8141 86.2624 21.0976 86.2624 21.0976L85.3497 18.8646C85.3497 18.8646 85.1577 17.3792 84.6797 16.8262C84.2016 16.2733 83.2627 15.3408 82.8352 14.8845C82.4077 14.4282 81.9225 13.8067 81.6313 13.7094C81.7766 13.4669 82.4275 12.0979 84.9222 12.0787C87.4169 12.0595 88.1862 13.4477 88.4467 13.9526C88.7072 14.4576 89.8835 16.6406 90.32 20.8006C90.7277 24.9555 90.7475 25.2666 90.6797 26.7034C90.631 27.4995 90.3686 29.344 89.9117 31.3146C89.4944 32.985 89.0381 34.8493 88.2029 35.6934L88.2041 35.6896Z" fill="#A17C34"/>
<path fill-rule="evenodd" clip-rule="evenodd" d="M84.6721 39.0003C85.0475 39.0274 85.4225 38.9428 85.7499 38.7571C86.1089 38.7379 87.41 38.903 88.4097 37.6314C88.4775 37.9219 88.6529 38.7091 88.1959 39.408C88.4391 39.1648 88.7982 39.0682 88.8468 39.0003C88.866 39.3594 89.2059 40.4659 87.7691 43.1552C88.1569 42.7283 88.6132 42.7475 89.0209 42.6989C89.0407 43.2038 89.3121 44.9024 88.594 45.8157C88.1185 46.4371 87.3415 46.2426 87.3415 46.2426C87.3529 46.1069 87.3529 45.9705 87.3415 45.8349C87.3223 45.5725 87.2251 45.3107 87.2935 45.136C86.9181 44.9645 86.5761 44.7277 86.2836 44.4365C85.4388 43.6403 84.3419 42.2816 84.2644 41.2717C84.1671 40.1453 85.1771 39.9027 85.1771 39.9027C85.0925 39.827 85.0203 39.7385 84.9633 39.6403C84.9147 39.4758 84.866 39.2134 84.6721 39.0003Z" fill="#8C6228"/>
<path fill-rule="evenodd" clip-rule="evenodd" d="M77.1839 26.7866C77.1839 26.7866 77.1353 26.7187 76.8735 27.0291C76.9222 26.7187 76.9708 26.4269 76.99 26.1453C77.1139 25.8846 77.2742 25.6428 77.4662 25.4272C77.3203 25.7178 77.223 25.9802 77.223 25.9802C77.223 25.9802 77.5827 25.3101 78.1068 24.9024C78.4659 24.6112 78.9222 24.4755 79.1161 24.2035C79.3299 23.9123 79.2812 23.8637 79.3299 23.815C79.3299 23.815 79.806 23.5046 80.5343 22.5914C80.631 22.4749 80.7769 22.3488 80.8742 22.2323C81.0387 22.1645 81.4271 21.9898 81.8835 21.7562C82.3596 21.4944 82.8934 21.1354 83.2236 20.9882C83.8739 20.697 84.5638 20.7264 84.8838 20.2694C85.1263 20.2016 85.3881 19.4733 85.3401 18.8525C85.6991 18.9978 87.5436 20.1434 88.1753 22.6483C88.6316 24.425 87.8156 27.1629 87.4758 28.4838C87.1359 29.8048 87.0879 30.7846 86.6118 31.3862C86.0095 32.183 84.0684 33.3062 83.5923 33.8624C83.1846 34.3187 81.9615 35.4739 82.0095 36.3085C82.0582 36.9299 82.8249 37.2685 82.9907 37.3862C83.1564 37.504 83.1551 37.6486 83.4662 37.5782C83.7772 37.5078 83.8931 37.3645 84.0198 37.3645C84.1651 37.3837 84.1651 37.4131 84.2329 37.4131C84.2821 37.4117 84.331 37.405 84.3788 37.3933C84.3788 37.3933 84.3302 38.2771 82.2623 38.5453C82.1164 38.5651 81.9711 38.6131 81.7862 38.6426C82.0294 38.5261 82.1747 38.5261 82.4371 38.167C82.1459 38.1184 81.3107 38.0698 81.0969 38.0019C81.1647 37.8854 81.3881 37.5744 81.5724 37.4291C81.7375 37.2838 81.5532 37.2371 81.4079 37.3126C81.1578 37.4828 80.9178 37.6674 80.6892 37.8656C80.4467 38.0794 80.2329 38.3706 79.8444 38.6336C79.7279 38.2451 79.7471 37.5072 80.2041 36.9734C80.087 36.9926 79.8636 37.3325 79.6505 37.2646C79.612 36.9105 79.6349 36.5524 79.7183 36.2061C79.8348 35.769 80.4659 35.0022 80.4659 35.0022L83.5142 29.5552L84.1644 25.4291L77.1839 26.7853V26.7866Z" fill="#92723A"/>
<path fill-rule="evenodd" clip-rule="evenodd" d="M77.0196 27.0195C77.0196 27.0195 76.8545 27.136 77.1847 27.3594C77.1361 27.4272 77.0196 27.6698 76.8737 27.8349C76.7092 28.0269 76.5338 28.1459 76.466 28.311C76.3207 28.6509 76.2042 28.8838 76.2042 29.0298C76.2042 29.1757 76.1556 30.1075 75.7479 30.7091C75.602 30.9229 75.4369 31.2819 75.3204 31.5245C75.0778 31.9514 74.8641 32.2925 74.8154 32.4845C74.7188 32.8243 74.651 33.7562 74.651 33.7562C74.651 33.7562 74.8647 33.4938 74.9422 33.3971C74.825 33.6397 74.699 33.9014 74.5146 34.096C74.6311 33.9987 74.971 33.7562 75.5438 33.2512C76.3399 32.5818 77.5828 31.4554 79.0977 30.5632C78.6407 30.7283 78.2529 30.7283 77.9425 30.777C78.185 30.5344 80.3694 27.9712 81.515 27.7286C81.5845 27.6404 81.6192 27.5297 81.6122 27.4176L80.6311 27.321L78.6407 27.7478L78.3502 26.2118L77.0196 27.0176V27.0195Z" fill="#B18E3E"/>
<path fill-rule="evenodd" clip-rule="evenodd" d="M80.1851 35.7574C80.1851 35.7574 79.9227 36.0192 79.6801 36.6701C79.4934 36.4751 79.3333 36.2562 79.204 36.0192C78.8449 35.4176 78.292 34.6502 77.0005 35.0874C76.9813 34.6797 76.9518 34.4659 77.0005 34.1747C77.2142 34.1267 77.8645 33.6026 78.5147 32.8352C78.9717 32.311 79.3985 31.7088 79.6897 30.9421C79.8817 30.7962 80.2139 30.5536 80.6497 30.272C81.2712 29.8451 82.0187 29.2621 82.1352 28.6118C81.844 28.7283 81.2225 29.0195 80.2901 28.9715C80.6497 28.8064 81.2027 28.6317 81.1349 27.913C81.2808 27.8157 81.3973 27.7478 81.3973 27.7478C81.2878 27.7113 81.1727 27.6949 81.0574 27.6992C81.0376 27.6314 81.0088 27.5347 80.8437 27.5827C80.6785 27.6307 80.6517 27.6314 80.6299 27.6992C80.5621 27.719 80.3387 27.6992 80.1736 27.8163C80.0085 27.9334 79.5521 28.3206 79.3774 28.3885C79.4453 28.272 79.5419 28.0979 79.5419 28.0979C79.5419 28.0979 79.0664 28.1459 78.7265 28.2899C78.1051 28.5037 77.387 28.8922 76.6587 29.2704C76.7265 29.1539 76.756 29.0784 76.804 29.0566C76.852 29.0349 76.9691 29.0086 76.9691 28.9888C76.9691 28.969 76.9211 28.7968 76.9499 28.727C77.1676 28.2658 77.4246 27.824 77.7179 27.4067C78.0577 26.9498 78.1256 26.2995 78.1256 26.2995L79.611 25.552L83.7857 24.592L86.4949 24.7571L86.155 26.631L84.555 29.9027L83.1861 32.8832L81.6225 34.7091L80.1857 35.7574H80.1851Z" fill="#543E26"/>
<path fill-rule="evenodd" clip-rule="evenodd" d="M86.9518 27.648C86.9518 27.648 85.3205 29.6672 84.8642 29.9782C85.1554 29.3568 86.9518 25.6576 87.6021 24.6285C87.4568 24.512 87.2622 24.512 87.7186 22.7085C87.3307 23.6205 87.1944 24.0966 86.8744 24.3392C86.5544 24.5818 86.5147 24.5043 86.2984 24.5043C86.3393 24.4304 86.356 24.3456 86.3464 24.2618C86.3464 24.2618 84.9774 24.0966 84.0424 24.0966C83.1074 24.0966 81.2565 24.6016 80.2267 25.0093C79.4114 25.3491 78.955 25.3491 78.6638 25.5622C78.3726 25.8048 78.2075 26.0672 78.0616 26.135C77.9451 26.2029 77.3922 26.3776 77.2654 26.5619C77.149 26.7539 76.955 26.9696 76.955 27.0182C76.955 27.0669 76.9064 27.1354 77.0523 27.0861C77.1003 27.0669 77.46 26.8723 77.8677 26.6298C78.4206 26.3194 79.0907 25.9603 79.5765 25.7466C80.9646 25.193 81.4018 25.2902 82.0226 25.1738C82.6728 25.0573 83.6053 24.7853 84.2261 24.7853C84.8475 24.7661 86.0226 24.7853 86.2946 24.8339C86.1781 24.9312 86.0808 25.0477 86.1294 25.4554C86.1294 25.5718 86.0322 25.6979 85.9374 25.9795C85.6469 26.7757 85.0933 28.096 84.7854 28.7661C84.3586 29.6781 83.8734 30.4454 83.6334 30.921C83.3934 31.3965 82.8654 32.649 82.3426 33.319C81.8197 33.9891 81.5464 34.3968 81.3826 34.5427C81.2187 34.6886 80.0424 35.552 80.1301 35.863C80.3438 35.7952 81.6936 35.287 82.6734 34.1837C83.6533 33.0803 83.8485 32.407 84.6152 31.8048C85.3819 31.2026 85.9842 30.1933 86.3432 29.3587C86.644 28.5818 86.5762 28.3392 86.9544 27.6499L86.9518 27.648Z" fill="#806031"/>
<path fill-rule="evenodd" clip-rule="evenodd" d="M51.7967 42.7187C51.7967 42.7187 51.5829 43.6019 51.0972 44.039C50.6216 44.4666 49.7768 44.8352 49.6802 45.5539C49.5637 46.272 50.525 46.6317 50.525 46.6317C50.525 46.6317 50.0002 47.4957 50.0002 48.1459C50.0002 48.816 49.981 48.9421 50.0488 49.5827C49.9718 49.6323 49.9064 49.6977 49.8568 49.7747C49.8568 49.7747 49.9048 50.3962 50.381 50.784C50.8572 51.1718 51.2642 51.4054 51.5068 51.3082C51.5438 51.3873 51.5763 51.4685 51.604 51.5514C51.604 51.5514 51.9637 50.6387 52.2063 49.8426C52.4488 49.0272 52.6626 49.143 52.7592 48.0461C52.8559 46.9491 53.9112 45.0656 53.9112 45.0656L54.6312 43.456L53.4568 42.5434L51.7967 42.7181V42.7187Z" fill="#B6903C"/>
<path fill-rule="evenodd" clip-rule="evenodd" d="M53.9808 44.3008C53.7386 44.5494 53.5151 44.8155 53.312 45.097C53.0016 45.5245 52.759 45.9123 52.3027 46.0781C51.8464 46.2438 51.5552 46.2426 51.584 46.6995C51.6128 47.1565 52.0403 47.3498 52.2829 47.5827C52.5453 47.8253 52.759 48.233 52.6425 48.6899C52.7878 48.6221 53.0502 48.544 53.2928 48.0198C53.5353 47.4957 55.232 44.3014 55.232 44.3014H53.9808V44.3008Z" fill="#685026"/>
<path fill-rule="evenodd" clip-rule="evenodd" d="M60.6722 36.9318C60.6722 36.9318 60.8175 36.544 60.6722 36.2624C60.5263 35.9712 59.6431 35.8739 59.206 35.5437C58.7497 35.2038 58.1961 34.9677 57.7398 35.1168C57.8076 34.9517 58.0796 34.592 57.8562 34.5146C57.6425 34.4467 56.847 34.8058 56.6332 34.9709C56.4194 35.136 55.9337 35.3299 55.837 35.447C55.7404 35.5642 55.5746 35.7869 55.4774 35.6896C55.3801 35.6218 55.3321 35.447 55.167 35.5437C55.0018 35.6403 54.207 36.2912 54.0604 36.6701C53.9138 37.049 53.5842 37.8938 52.5942 38.8544C51.6041 39.815 51.1766 40.4371 51.4678 40.7962C51.759 41.1552 51.8953 40.8934 51.9439 41.2038C51.9813 41.5086 51.9649 41.8175 51.8953 42.1165C51.7788 42.6214 51.5849 43.097 51.8466 43.1942C52.5167 43.408 53.1676 43.0022 53.3129 43.1264C53.6041 43.3882 53.1478 44.3302 53.837 44.5146C54.5366 44.7066 55.2258 44.3494 55.2258 44.3494L57.7692 42.9805L60.2159 41.6896L61.4678 39.2134L60.7964 37.1456L60.6684 36.9318H60.6722Z" fill="#D4B968"/>
<path fill-rule="evenodd" clip-rule="evenodd" d="M58.2721 42.8448C58.2721 42.8448 57.8446 42.1946 58.3694 41.6211C58.8942 41.0477 59.641 40.8058 59.9322 40.4467C59.8768 40.3783 59.8025 40.3278 59.7185 40.3014C59.9118 39.9555 60.2067 39.6774 60.5633 39.5046C60.418 39.3594 60.2234 39.2429 60.0103 39.2429C59.5342 39.2429 59.2423 39.5341 58.8058 39.5341C58.379 39.5341 58.3303 39.3203 58.3303 39.3203C58.3303 39.3203 59.049 39.2525 58.9806 38.9318C58.9127 38.592 58.7886 38.592 58.7886 38.592C58.7886 38.592 60.1767 38.016 60.4193 37.7088C60.6618 37.4016 60.633 37.0387 60.6817 36.8934C60.8462 36.8934 61.8074 36.3885 62.1959 36.6022C62.5844 36.816 62.3124 37.3984 62.3124 37.3984C62.3124 37.3984 63.4881 36.5146 64.0871 35.648C64.6113 35.6966 64.8551 35.289 65.2391 35.289C65.7153 35.289 66.4628 35.9392 66.6081 37.3274C66.7054 38.1235 66.8506 38.5798 66.7054 39.9878C66.6375 40.784 66.6567 42.4838 66.8974 43.3274C67.0618 43.9974 67.4503 43.9296 67.4503 43.9296C67.3907 44.1338 67.2726 44.316 67.1105 44.4538C66.8481 44.6963 66.8193 45.3376 66.8481 45.5802C66.8868 45.7575 66.9355 45.9325 66.994 46.1043C66.994 46.1043 66.6836 46.4634 66.6055 46.7066C66.5377 46.9491 66.2177 47.1142 65.9841 47.1142C65.7505 47.1142 65.8676 47.0944 65.5572 47.1142C65.2468 47.1341 65.1495 47.1821 64.955 47.1142C64.7604 47.0464 64.6151 46.9683 64.6932 46.3462C64.761 45.7248 62.2951 44.2784 62.2951 44.2784L58.2631 42.8416L58.2721 42.8448Z" fill="#CCA849"/>
<path fill-rule="evenodd" clip-rule="evenodd" d="M53.6409 48.9805C53.6409 48.9805 54.5241 50.1555 58.1555 50.1555C59.8835 50.1555 60.4857 49.9904 60.8435 49.8931C61.2319 49.7958 62.6879 49.2237 64.1542 47.495C65.4745 45.9322 65.1833 45.2915 65.1833 45.2915L64.4153 45.175L61.9193 45.5149L54.5337 48.6605L53.6377 48.9805H53.6409Z" fill="#585136"/>
<path fill-rule="evenodd" clip-rule="evenodd" d="M56.3492 49.2717C56.3492 49.2717 53.2036 49.9712 53.2036 47.9808C53.2036 46.039 55.1454 44 55.6311 43.641C56.1361 43.2813 57.3399 42.873 57.3399 42.873H60.243L60.7959 44.3392L60.5534 47.504L56.3492 49.271V49.2717Z" fill="#252211"/>
<path fill-rule="evenodd" clip-rule="evenodd" d="M59.2524 43.4662C59.2524 43.4662 58.6508 42.9126 57.2818 43.6582C55.9129 44.4038 54.8057 45.9622 54.7378 47.3773C54.67 48.6291 55.767 49.5616 57.4758 49.6102C58.7474 49.6582 59.5148 49.513 59.9033 49.4182C59.806 49.3018 59.301 48.6707 59.301 48.6707L59.253 43.4669L59.2524 43.4662Z" fill="#C3B378"/>
<path fill-rule="evenodd" clip-rule="evenodd" d="M58.6607 43.776C58.6607 43.776 58.5154 43.6595 58.0847 43.8925C57.7257 44.0845 57.2015 44.592 56.7938 44.951C56.5314 45.1648 56.3663 45.2614 56.2178 45.4266C55.6156 46.1453 55.1106 47.3203 55.4025 47.9027C55.6943 48.4851 56.6549 49.1552 59.1017 48.6989L58.6537 43.7766L58.6607 43.776Z" fill="#E6D89C"/>
<path fill-rule="evenodd" clip-rule="evenodd" d="M57.8645 44.9805C57.8645 44.9805 57.476 45.5827 57.476 46.544C57.476 47.5245 58.0296 49.0874 60.0686 49.2038C61.6315 49.3011 62.6798 46.9517 63.8158 46.039C64.6798 45.3402 65.204 45.3203 65.204 45.3203C65.204 45.3203 64.3208 44.3603 61.9617 43.1168C59.6315 41.8643 57.0197 41.6992 55.6021 43.6218C56.2721 43.5731 58.4373 43.0195 58.4373 43.0195L59.4958 43.3594L57.8645 44.9811V44.9805Z" fill="#252211"/>
<path fill-rule="evenodd" clip-rule="evenodd" d="M60.9126 46.2522C60.8448 46.1069 60.7961 45.9123 61.0777 45.8643C61.3593 45.8163 61.4854 45.8445 61.5827 46.0563C61.68 46.2682 61.7747 46.4448 61.6307 46.5325C61.4854 46.6099 61.1065 46.5325 60.912 46.2509L60.9126 46.2522ZM60.4563 44.8832C60.4563 44.8832 60.359 44.951 60.4077 44.8154C60.4269 44.6509 60.5536 44.359 60.864 44.4275C61.1744 44.496 61.1072 44.8352 61.056 44.9325C61.0048 45.0298 60.7456 45.1942 60.551 45.1245C60.501 45.1117 60.4601 45.0758 60.4408 45.0279C60.4216 44.98 60.4264 44.9257 60.4537 44.8819L60.4563 44.8832Z" fill="#6F674D"/>
<path fill-rule="evenodd" clip-rule="evenodd" d="M34.1758 45.504C34.1758 45.504 34.9438 46.08 35.8359 46.0576C36.7191 46.0378 37.8551 45.1258 38.3793 44.5427C38.6897 44.2029 38.9553 43.8438 39.2433 43.5622C39.4865 43.3197 39.651 43.2032 39.7675 43.0381C39.9326 42.8461 40.1073 42.4851 40.195 42.368C39.9812 42.5331 39.6708 42.825 39.3502 43.0189C39.0398 43.2109 38.3697 43.5718 38.0977 43.6691C37.8359 43.7664 35.1172 45.2051 35.1172 45.2051L34.1758 45.504Z" fill="#AC924C"/>
<path fill-rule="evenodd" clip-rule="evenodd" d="M35.3496 38.3302C35.3496 38.3302 35.7765 38.039 36.6021 37.8541C37.3982 37.6621 39.0002 37.5142 39.0002 37.5142L40.3205 38.0902L40.8446 40.0806L39.8846 42.1491L38.6616 42.9171L37.2728 40.6842L35.3528 38.3341L35.3496 38.3302Z" fill="#9F8E57"/>
<path fill-rule="evenodd" clip-rule="evenodd" d="M33.622 40.1069L33.165 40.448C33.165 40.448 33.2822 40.2342 33.3788 39.584C33.4754 38.9338 33.981 37.351 34.719 36.4384C35.4569 35.5258 35.4377 35.5744 35.4377 35.5744C35.3003 35.5493 35.1588 35.5845 35.0492 35.671C35.1465 35.456 35.7679 34.688 36.3894 34.304C37.0108 33.92 37.2534 33.799 37.9036 34.112C38.5538 34.425 38.719 34.5875 39.1951 34.5683C39.6713 34.5491 40.0783 34.0442 40.0783 34.0442C40.0783 34.0442 40.1756 34.3546 39.8166 35.0733C39.4575 35.792 38.0399 37.2576 38.0399 37.2576L35.0882 39.2768L33.622 40.1088V40.1069Z" fill="#EAC970"/>
<path fill-rule="evenodd" clip-rule="evenodd" d="M35.8053 38.0877C35.8053 38.0877 37.9416 38.3789 38.5919 37.7773C38.6111 37.8451 38.6891 37.8451 38.6891 37.8938C38.6839 37.9304 38.6668 37.9644 38.6405 37.9904C38.7112 37.9791 38.7826 37.9727 38.8543 37.9712C38.9398 37.9967 39.0277 38.013 39.1167 38.0198C39.1883 38.0183 39.2597 38.0117 39.3304 38C39.3168 38.0975 39.2641 38.1853 39.1845 38.2432C39.2818 38.2432 39.3765 38.2624 39.3765 38.3398C39.3765 38.4173 39.3957 38.6509 39.2792 38.6995C39.1827 38.7262 39.08 38.7192 38.988 38.6797C38.9957 38.8635 39.0456 39.0431 39.1339 39.2045C39.3259 39.5635 39.7355 39.9725 40.2859 39.8547C40.2859 39.8547 40.5765 40.5536 39.3535 42.1069C39.189 42.3206 39.0136 42.6118 38.8005 42.8544C38.7163 43.038 38.6519 43.23 38.6085 43.4272C38.6085 43.4272 40.677 42.631 41.269 40.8154C41.8712 38.9901 41.9877 37.1942 41.8712 35.5149C41.8514 35.0387 41.7739 34.6995 41.6575 34.4563C41.3663 33.8541 40.5503 33.9514 40.2207 34.2912C39.7445 34.7674 38.9483 35.9514 37.8418 36.7667C36.7154 37.5821 36.6674 37.7267 35.8027 38.0877H35.8053Z" fill="#D7BC6B"/>
<path fill-rule="evenodd" clip-rule="evenodd" d="M33.2427 40.7091C33.2427 40.7091 32.835 40.9517 32.6213 41.8611C32.4075 42.793 32.8133 43.929 33.0482 44.288C33.283 44.647 33.8162 45.6282 34.9221 45.6768C35.1958 45.6753 35.4665 45.6192 35.7182 45.5117C36.1043 45.3347 36.4664 45.1095 36.796 44.8416C37.2722 44.4826 37.66 44.1722 37.6114 44.1427C37.4949 44.0941 34.6795 41.7638 34.6795 41.7638L33.621 40.5824L33.2421 40.7104L33.2427 40.7091Z" fill="#585136"/>
<path fill-rule="evenodd" clip-rule="evenodd" d="M35.9039 44.5728C35.9039 44.5728 36.4767 44.5248 36.8166 44.311C37.1564 44.0973 34.8262 41.7869 34.8262 41.7869L34.9913 44.2829L35.9039 44.5728Z" fill="#453A25"/>
<path fill-rule="evenodd" clip-rule="evenodd" d="M33.4273 40.5338C33.4273 40.5338 33.1361 41.0874 33.1361 41.2333C33.0874 41.7088 33.2334 43.2038 33.3498 43.6794C33.4663 44.1843 34.0974 44.951 34.9134 44.951C35.4177 44.951 36.1172 44.6406 36.1172 44.5632C36.1172 44.4659 35.3985 44.3712 35.2046 44.0096C35.0881 43.8176 35.0394 43.3402 35.0126 42.8576C34.9934 42.5472 34.9934 42.2074 35.1098 42.0896C35.3722 41.7984 35.4202 40.9632 35.4202 40.9632L36.3521 39.232H35.1265L33.6602 40.1446L33.4273 40.5338Z" fill="#84754B"/>
<path fill-rule="evenodd" clip-rule="evenodd" d="M33.0684 41.0682C33.0684 41.0682 34.0284 39.7965 34.8936 39.5046C35.7589 39.2128 36.1461 39.3882 36.1461 39.3882L35.6412 40.6797L34.9224 41.4758L34.9711 41.8835C34.9711 41.8835 34.854 42.9613 35.5727 43.7088C36.2914 44.4563 36.8252 44.4275 37.1362 44.4275C37.4472 44.4275 38.34 44.1651 38.7964 43.0874C39.204 42.0781 39.5439 40.7834 38.7285 39.4854C37.9317 38.1939 36.5244 38.144 36.2524 38.144C35.9804 38.144 33.8447 38.2509 33.0684 41.0662V41.0682Z" fill="#252211"/>
<path fill-rule="evenodd" clip-rule="evenodd" d="M57.7182 45.3882C57.3592 45.223 57.699 44.2138 58.0581 43.9027C58.4171 43.5917 58.8734 43.2333 59.6702 43.184C59.9608 43.1648 60.2424 43.3491 60.1944 43.5437C60.1265 43.9027 59.6216 44.4077 59.1653 44.7667C58.5342 45.2621 58.1259 45.5725 57.7182 45.3882Z" fill="#F7F7E7"/>
<path fill-rule="evenodd" clip-rule="evenodd" d="M38.3006 39.8835C38.563 39.8643 38.9029 40.0755 38.9707 40.3597C39.0386 40.6701 38.8056 41.2915 38.3006 41.2915C37.893 41.2915 37.6792 40.7866 37.6792 40.6413C37.6838 40.5218 37.7172 40.4052 37.7765 40.3014C37.7957 40.272 37.8443 39.9322 38.3006 39.8835Z" fill="#F8F6DE"/>
<path fill-rule="evenodd" clip-rule="evenodd" d="M34.5145 40.1069C34.5145 40.1069 33.8444 40.4173 33.534 41.0669C33.3122 41.5466 33.2451 42.0834 33.342 42.6029C33.3906 42.8454 33.6332 43.447 33.7983 43.6608C33.9634 43.8746 34.1868 44.0205 34.3519 44.0006C34.517 43.9808 34.8562 43.5443 34.8562 43.2826C34.8562 43.0208 34.8761 41.9136 35.1961 41.3114C35.4777 40.7098 34.5164 40.1075 34.5164 40.1075L34.5145 40.1069Z" fill="#D4C38B"/>
<path fill-rule="evenodd" clip-rule="evenodd" d="M34.6117 40.0582C34.4952 40.1261 34.3013 40.2234 34.3493 40.3494C34.3979 40.4659 34.8056 40.5414 34.9515 40.8256C35.1166 41.1168 35.1166 41.4272 35.068 41.5731C35.1948 41.5129 35.3099 41.4305 35.4078 41.3299C35.6216 41.0874 35.8834 40.7578 36.1067 40.7578C36.2526 40.7578 36.3979 40.8256 36.5342 40.8256C36.748 40.8256 36.9611 40.7578 36.9906 40.5344C37.0386 40.2432 36.5829 39.9808 36.3205 40.0294C36.3691 39.8374 36.437 39.5539 36.2232 39.3594C36.0094 39.1648 35.34 39.5053 35.1941 39.6026C35.0482 39.6998 34.6117 40.0589 34.6117 40.0589V40.0582Z" fill="#E2D59D"/>
<path fill-rule="evenodd" clip-rule="evenodd" d="M50.0389 60.4563L51.4757 60.032L51.8834 60.3232C51.8834 60.3232 52.1739 60.9446 52.6309 61.0221C52.485 61.3325 52.1061 61.5981 52.1259 61.8182C52.1458 62.0384 52.3397 62.2067 52.3397 62.2067C52.3397 62.2067 51.0482 64.3424 53.5922 66.4947C52.9899 66.7373 52.2232 67.0707 51.8155 67.2627C52.1061 67.3306 52.7275 67.4547 52.9899 67.6902C53.2523 67.9258 53.2523 68.0006 53.4949 68.1466C53.7375 68.2925 53.8827 68.4864 53.8347 68.5734C53.6696 68.4762 53.116 68.1856 53.0194 68.457C52.9227 68.7283 50.6213 68.6221 50.6213 68.6221L46.7378 69.3696C46.7378 69.3696 46.8831 68.9811 46.4754 68.6221C45.9999 68.1952 45.4175 68.6413 44.796 68.1658C43.9807 67.5443 43.9512 66.8256 43.6895 66.5542C43.9512 66.3891 44.4856 66.1466 45.7573 65.9782C45.7087 65.881 45.5435 65.5898 45.6408 65.328C45.7573 64.9882 46.2424 64.7744 46.0971 64.368C46.3109 64.3194 46.4075 64.3194 46.9419 63.6493C47.4469 62.9792 47.7573 62.8339 48.1458 62.7853C48.5343 62.7366 48.7672 62.7853 49.4859 62.1152C49.9903 61.6397 49.8258 61.232 49.8258 61.232C49.8258 61.232 50.1554 61.1251 50.0395 60.455L50.0389 60.4563Z" fill="#CBAC5A"/>
<path fill-rule="evenodd" clip-rule="evenodd" d="M45.7967 60.672C45.8159 60.5747 45.894 60.5261 46.4181 60.5747C46.9423 60.6234 50.2626 60.2643 51.1656 60.2157C52.0783 60.1478 55.2917 60.1958 56.8552 60.5261C58.4188 60.8563 60.0008 61.2448 60.7676 61.4387C61.5356 61.6525 61.7775 61.7293 61.748 61.8266C61.7288 61.9238 61.556 62.0186 61.4568 61.9917C61.3602 61.9725 58.8162 61.1955 58.0303 61.0317C57.2444 60.8678 54.525 60.4294 53.0383 60.4557C51.6501 60.4755 51.0965 60.4365 49.9221 60.5722C48.7471 60.7181 46.8053 60.912 46.2229 60.8346C45.6469 60.7667 45.766 60.7667 45.7954 60.6694L45.7967 60.672Z" fill="#D6BC6F"/>
<path fill-rule="evenodd" clip-rule="evenodd" d="M53.6114 68.2816C53.6114 68.2816 55.6018 69.3594 56.3205 70.6797C56.8447 71.6602 56.0101 72.1459 56.0101 72.1459C56.0101 72.1459 57.1365 72.1459 56.9906 72.7674C56.9227 73.1552 55.0488 74.2035 53.7963 74.7571C52.5247 75.3107 52.5733 75.2819 51.9519 75.3786C51.3496 75.4758 49.6991 75.1866 49.3592 75.6698C49.0194 76.153 49.1672 76.6509 49.2619 76.7283C49.3592 76.7962 50.1458 76.8934 50.1458 76.8934C50.1458 76.8934 49.9807 77.3498 48.3499 77.3984C46.7192 77.447 46.3109 77.5629 46.2136 77.7382C46.1163 77.9027 46.524 77.8061 47.2722 77.9302C48.0197 78.0467 49.068 78.1222 49.068 78.1222C49.068 78.1222 48.7282 78.4134 47.845 78.6464C46.8351 78.9082 45.2523 79.1514 44.7768 79.4426C45.0194 79.6077 45.3791 79.8502 45.5448 79.8694C45.1371 79.9667 44.5637 80.1805 44.4671 80.2579C44.6123 80.3552 44.8069 80.4717 44.8069 80.4717C44.8069 80.4717 43.9909 81.4522 43.5154 81.6954C43.0399 81.9386 40.3019 83.2096 39.3599 82.967C37.0104 82.3456 36.7192 79.7728 36.1464 79.5789C35.2824 79.2877 34.8747 79.8694 34.1074 79.4618C34.4472 79.2192 34.6322 79.0739 34.9912 78.9088C34.6027 78.7168 32.5931 77.4426 32.5931 77.4426C32.383 76.9845 32.1497 76.5374 31.8943 76.103C31.5058 75.433 30.9343 74.5395 30.5055 73.753C29.5736 72.025 29.525 71.2288 28.6802 70.2483C28.8261 70.0563 29.3304 70.0832 29.3304 70.0832L36.4088 72.4134L48.9599 72.777L52.2239 68.1171L53.612 68.2822L53.6114 68.2816Z" fill="#DFC677"/>
<path fill-rule="evenodd" clip-rule="evenodd" d="M35.0195 75.3882C35.0953 75.4725 35.1836 75.5446 35.2813 75.6019C35.5245 75.767 35.8835 75.9616 36.1261 76.2522C36.2234 76.1069 36.4659 75.8445 36.8941 76.2522C37.3223 76.6598 37.8541 76.3693 38.185 76.4659C38.5248 76.583 38.544 76.631 38.544 76.631C38.544 76.631 38.736 76.4659 39.1655 76.2912C39.4279 76.1939 39.7383 76.1261 40.0781 76.0294C40.3885 75.9616 40.7283 75.8643 40.9619 75.8643C41.1757 76.0096 41.9424 76.8243 45.0202 75.6218C47.9232 74.4954 48.5927 74.3693 49.0784 74.5434C49.1271 74.4269 49.1757 74.2035 49.9232 74.233C49.9232 73.9226 49.3018 72.864 49.3018 72.864L45.8746 71.6896H44L38.3789 72.7187L35.264 74.496L35.0215 75.392L35.0195 75.3882Z" fill="#C4A859"/>
<path fill-rule="evenodd" clip-rule="evenodd" d="M33.1455 73.4176C33.1455 73.4176 33.2133 73.9418 33.9903 74.4954C34.7583 75.0483 34.9996 75.3786 34.9996 75.3786C34.9996 75.3786 35.1455 75.1866 35.262 74.9907C35.3785 74.777 35.4757 74.5344 35.6697 74.4666C36.0581 74.3014 36.9413 74.6118 37.1359 74.5632C37.301 74.5152 37.2524 74.1754 37.4271 74.1754C37.8348 74.1555 38.0965 74.4371 38.2425 74.4371C38.3884 74.4371 38.7468 74.4179 38.7954 74.3405C38.8441 74.263 38.8633 73.4566 39.4169 73.0682C40.0191 72.6413 40.757 72.8256 40.9529 72.9229C40.9529 73.0682 40.9721 73.4278 41.3605 73.447C41.749 73.4662 41.7874 73.3984 42.1285 73.5149C42.4697 73.6314 42.8761 73.4957 43.0604 74.0678C43.2255 74.0198 43.614 73.9712 43.5167 73.4176C43.7087 73.2723 43.8764 73.175 44.2847 72.6022C44.382 72.457 44.5465 72.2918 44.6732 72.0781C45.013 72.0781 45.4207 72.0102 45.9641 72.4858C45.7989 72.6022 45.7017 72.6778 45.6537 72.7962C45.7958 72.9369 45.9255 73.0895 46.0415 73.2525C46.1874 73.4445 46.2847 73.68 46.469 73.7286C46.8767 73.8451 47.5468 73.68 48.2943 73.7286C49.013 73.7773 49.6146 74.039 49.877 74.2042C49.9743 74.1562 49.9743 74.1363 50.2169 74.185C50.4594 74.2336 50.6437 74.2528 50.382 73.9424C50.5273 74.0102 50.6924 74.1562 50.8383 74.0102C50.9842 73.8643 51.1001 73.6512 51.5077 73.6026C51.9154 73.5539 52.0613 73.6218 52.2265 73.1949C52.4402 72.6707 51.7023 72.6707 51.7023 72.6707C51.7023 72.6707 52.0421 72.3597 52.421 71.952C52.8773 71.5251 53.4015 70.9715 53.5276 70.2918C53.7413 69.0394 52.5183 68.8749 52.5183 68.8749L46.5861 70.7002L39.3337 70.3405L33.1493 73.4182L33.1455 73.4176Z" fill="#927D49"/>
<path fill-rule="evenodd" clip-rule="evenodd" d="M27.8158 56.2816C27.8158 56.2816 27.6238 56.5242 27.5054 57.097C27.387 57.6698 27.4376 57.6019 27.3403 58.0096C27.243 58.4173 26.0481 62.4755 26.4961 63.8445C26.9441 65.2134 27.7198 65.7184 28.2049 66.825C28.3022 67.0675 28.3969 67.2134 28.4475 67.4272C28.6126 68.1453 28.4673 68.6989 28.6612 69.4176C28.7291 69.6602 28.9044 69.9418 29.1662 70.233C29.7422 70.8346 30.6811 71.4074 31.0862 71.815C31.6584 72.4173 32.4744 73.641 33.5131 73.7568C34.0667 73.8246 34.8532 73.5917 35.5035 73.2038C36.0795 72.8442 36.4353 72.3398 37.0395 72.0518C37.4664 71.8381 37.9227 71.7606 38.3304 71.6634C39.1752 71.4982 39.9425 71.4714 40.3988 71.5661C41.0977 71.712 42.7483 72.217 43.6628 72.217C44.3775 72.2054 45.0881 72.1077 45.7793 71.9258C47.1675 71.5181 48.8468 70.8186 49.954 70.5082C50.6043 70.3162 51.1284 70.2656 51.6628 70.1491C52.5755 69.9354 53.3422 69.6442 53.7793 69.0906C53.4881 68.7507 53.1291 68.2266 51.1867 68.2458C48.9832 68.2944 46.4392 69.5174 45.1867 69.712C43.9342 69.9066 43.3908 70.071 41.9924 69.5661C40.6216 69.056 40.5761 68.7187 40.5761 68.7187C40.5761 68.7187 39.1368 67.712 38.5345 65.1456C37.9323 62.5792 38.5345 60.7091 40.098 58.9318C40.5057 58.4755 40.4084 58.0678 40.4084 58.0678C40.4084 58.0678 41.4376 56.6797 41.156 55.3798C40.8456 54.0883 38.8552 54.3507 38.8552 54.3507L27.8164 56.2816H27.8158Z" fill="#6E6342"/>
<path fill-rule="evenodd" clip-rule="evenodd" d="M29.4757 60.6022C29.3901 60.7632 29.3499 60.9443 29.3592 61.1264C29.3784 61.3882 29.4565 61.728 30.2424 62.4954C30.9125 63.1648 30.7666 63.9123 30.7666 63.9123C30.7666 63.9123 31.1039 63.9802 32.0191 63.552C32.7378 63.2122 32.9791 63.8144 32.9791 63.8144C33.1883 63.7047 33.4151 63.6323 33.6492 63.6006C33.8613 63.5811 34.0666 63.5156 34.2508 63.4086C34.2508 63.4086 35.0956 64.2726 35.8335 64.6803C36.5036 65.04 36.892 65.2826 37.2223 65.04C37.5327 64.8262 37.5327 64.3891 37.5128 64.1952C37.4358 64.0162 37.3383 63.8468 37.2223 63.6902C37.0085 63.3798 36.6687 63.0202 36.6463 62.7302C36.5976 62.0608 37.1512 61.264 37.0341 61.0701C36.917 60.8762 36.4812 60.8275 35.4034 61.216C34.2872 61.5846 29.4712 60.6042 29.4712 60.6042L29.4757 60.6022Z" fill="#39331F"/>
<path fill-rule="evenodd" clip-rule="evenodd" d="M32.0194 64.9421C32.0194 64.9421 31.4665 64.4179 31.6604 61.8739C31.8951 61.8705 32.1295 61.8933 32.3593 61.9418C32.3593 61.9418 32.6607 63.913 32.0194 64.9421Z" fill="#292311"/>
<path fill-rule="evenodd" clip-rule="evenodd" d="M28.0779 54.3398C28.155 54.2827 28.2266 54.2184 28.2916 54.1478C28.0996 54.5069 27.2132 55.9437 27.932 58.2061C28.6507 60.4582 30.4561 62.1376 32.6795 62.2157C34.9028 62.2938 36.0715 61.2058 37.4078 59.575C37.932 58.9248 38.5342 58.1088 39.068 57.5558C39.8641 56.6912 40.4856 56.4486 40.4856 55.6141C40.4856 53.9053 38.7377 53.1379 36.1649 52.3712C33.5921 51.6045 31.2715 51.6992 30.0676 52.224C28.8932 52.7962 28.3883 53.3984 28.0772 54.3405L28.0779 54.3398Z" fill="#252211"/>
<path fill-rule="evenodd" clip-rule="evenodd" d="M36.3398 65.7088L36.5318 65.6115C36.5318 65.6115 36.5798 64.8435 36.8909 64.864C37.2013 64.9126 37.3472 65.3209 37.3177 65.4662C37.2985 65.6115 37.2211 65.8547 36.9101 65.8253C36.5024 65.8349 36.3379 65.7088 36.3379 65.7088H36.3398Z" fill="#3F3824"/>
<path fill-rule="evenodd" clip-rule="evenodd" d="M35.4761 62.4467C35.4761 62.4467 35.6681 62.3789 35.903 62.6118C36.095 62.6118 36.9321 62.5146 37.1945 62.6797C37.4569 62.8448 37.5343 62.9901 37.5343 62.9901C37.5343 62.9901 36.5538 63.2038 36.0194 62.9901C35.4761 62.8058 35.4761 62.4467 35.4761 62.4467H35.4761Z" fill="#2D2815"/>
<path fill-rule="evenodd" clip-rule="evenodd" d="M39.7964 62.592C39.7964 62.5434 39.2722 62.1843 38.7186 62.0672C38.6213 62.048 38.6015 62.1158 38.5266 62.1158C38.478 62.0966 38.4588 61.9507 38.4588 61.9507L38.1439 62.1165C38.1439 62.1165 38.0953 62.1843 38.2604 62.3085C38.4057 62.425 38.6489 62.5222 38.7167 62.7162C38.7845 62.9101 38.7845 62.9779 38.814 63.0074C38.8332 63.0266 39.173 63.0074 39.3381 62.9101C39.5033 62.8128 39.8143 62.6541 39.7945 62.5901L39.7964 62.592Z" fill="#82764F"/>
<path fill-rule="evenodd" clip-rule="evenodd" d="M34.8936 64.5632C34.8936 64.5632 34.9902 63.8938 35.6411 63.8643C36.3105 63.8157 36.4372 64.4659 36.4372 64.4659L36.0488 64.8544C36.0488 64.8448 35.7576 64.4371 34.8968 64.5632H34.8936Z" fill="#2D2816"/>
<path fill-rule="evenodd" clip-rule="evenodd" d="M39.1168 61.6794C39.1168 61.6794 38.7571 62.0678 37.9616 62.1843C37.8937 62.087 37.7478 61.8931 37.9616 61.5827C38.1753 61.2723 38.4179 61.175 38.6604 61.2717C38.879 61.3071 39.057 61.4662 39.1168 61.6794Z" fill="#574F35"/>
<path fill-rule="evenodd" clip-rule="evenodd" d="M40.5824 62.1555C40.6023 62.0582 40.5344 62.039 40.5824 61.9904C40.6304 61.9418 40.8935 61.8451 40.9421 61.8931C40.9613 61.913 40.9421 61.9904 40.9421 62.0851C40.9421 62.1798 40.9421 62.2771 40.8935 62.3469C40.8256 62.4442 40.6317 62.4928 40.5344 62.464C40.4372 62.4352 40.418 62.2989 40.418 62.272C40.466 62.2528 40.5824 62.2042 40.5824 62.1555ZM42.24 61.1072C42.24 61.0586 42.4052 60.9613 42.5024 60.9613C42.6477 60.9613 42.6477 61.0778 42.6676 61.1072C42.7156 61.1264 42.7156 61.0874 42.7642 61.175C42.8128 61.2627 42.8813 61.4176 42.832 61.5149C42.7828 61.6122 42.5895 61.6794 42.5415 61.6602C42.4736 61.6115 42.2599 61.175 42.24 61.1072Z" fill="#82764F"/>
<path fill-rule="evenodd" clip-rule="evenodd" d="M38.9028 62.3789C38.9028 62.3789 39.1166 62.4269 39.4078 62.6701C39.3105 62.7379 39.1646 62.8154 39.1646 62.8154C39.1646 62.8154 39.1454 62.592 38.9028 62.3782V62.3789Z" fill="#6E6342"/>
<path fill-rule="evenodd" clip-rule="evenodd" d="M38.4276 60.2426C38.379 60.1946 38.5729 60.0781 38.6894 60.0973C38.8058 60.1165 38.8545 60.1946 38.9806 60.2138C39.1066 60.233 39.1265 60.1651 39.1726 60.1165C39.2186 60.0678 39.3863 60.0973 39.4151 60.1165C39.4331 60.1378 39.4493 60.1605 39.4638 60.1843C39.4679 60.1097 39.5029 60.0401 39.5604 59.9923C39.6358 59.9369 39.7325 59.919 39.8228 59.9437C39.842 60.0115 39.9393 60.2541 39.9201 60.3027C39.9009 60.3514 39.6097 60.4198 39.5604 60.3706C39.609 60.4877 39.8228 60.7302 39.8516 60.7782C39.8804 60.8262 39.6378 60.9434 39.5412 60.9242C39.4055 60.9146 38.5703 60.4288 38.425 60.2445L38.4276 60.2426ZM39.6993 58.631C39.6813 58.5821 39.6469 58.541 39.602 58.5146C39.5342 58.4954 39.3108 58.5146 39.3108 58.631C39.3108 58.7475 39.5028 59.399 39.7185 59.7382C39.9617 60.0781 40.1262 60.359 40.2913 60.4371C40.3988 60.4861 40.526 60.4436 40.5825 60.3398C40.6017 60.2912 40.6503 59.9322 40.6311 59.0874C40.6119 58.2426 40.5825 57.4272 40.5338 57.3786C40.4852 57.3299 40.2913 57.3306 40.2234 57.4272C40.1556 57.5238 39.7185 58.4858 39.6986 58.631H39.6993Z" fill="#585136"/>
<path fill-rule="evenodd" clip-rule="evenodd" d="M38.835 63.6019C38.835 63.6019 38.4952 63.3882 38.165 63.5341C37.8546 63.68 37.8738 64.2528 37.8738 64.2528C38.0155 64.3083 38.1756 64.2901 38.3013 64.2042C38.515 64.0589 38.7864 63.8163 38.835 63.6026V63.6019Z" fill="#574F35"/>
<path fill-rule="evenodd" clip-rule="evenodd" d="M39.4757 64.3693C39.4565 64.1773 39.2837 64.1773 39.2837 64.0781C39.3082 63.9805 39.3962 63.9123 39.4968 63.913C39.5941 63.913 39.6888 64.0294 39.8079 64.105C39.9243 64.1728 40.0991 64.297 40.1183 64.4448C40.1375 64.5926 39.9263 64.9978 39.6914 64.9978C39.4565 64.9978 39.5263 64.5606 39.4776 64.3667L39.4757 64.3693ZM41.3496 64.1069C41.3496 64.1069 40.9611 64.2234 40.9899 64.1069C41.0187 63.9904 41.1071 63.9616 41.2331 63.9616C41.2972 63.8945 41.3833 63.8529 41.4757 63.8445C41.5285 63.8419 41.5804 63.8592 41.621 63.8931C41.621 63.8931 41.8834 63.7766 41.9608 63.8445C42.0383 63.9123 41.9807 63.9123 42.0287 63.9904C42.0898 64.0771 42.1299 64.1768 42.1458 64.2816C42.1458 64.359 41.8546 64.5242 41.621 64.4954C41.3496 64.4371 41.3976 64.1555 41.3496 64.1069ZM43.6114 63.6698C43.6114 63.6698 43.7279 63.7376 43.6312 63.8157C43.5634 63.8835 43.2235 64.0077 42.9317 64.0294C42.6405 64.0294 42.3787 64.0774 42.3787 63.9808C42.3787 63.8842 42.6213 63.6896 42.7666 63.641C42.8256 63.567 42.9152 63.5241 43.0098 63.5245C43.1263 63.5245 43.5819 63.4758 43.7087 63.4566C43.8251 63.4368 43.9224 63.5046 43.8539 63.6019C43.8251 63.6698 43.6114 63.6698 43.6114 63.6698ZM44.2815 60.672C44.2815 60.672 44.1355 60.9824 43.9711 60.9824C43.8059 60.9632 43.8059 60.9146 43.8059 60.8659C43.8059 60.7981 43.9711 60.6234 43.9512 60.5747C43.9032 60.5747 43.7861 60.5747 43.8059 60.4582C43.8059 60.361 43.9711 60.2445 44.1163 60.2662C44.2261 60.176 44.3628 60.1249 44.5048 60.121C44.6699 60.121 44.8152 60.169 44.8152 60.2662C44.8152 60.3635 44.6232 60.5766 44.5528 60.6259C44.4754 60.7034 44.3781 60.7539 44.2815 60.6739V60.672ZM42.0677 66.4096C42.0677 66.4096 41.8757 66.4294 41.8757 66.5261C41.8757 66.5747 41.9237 66.5747 41.9922 66.5459C42.0316 66.5437 42.0707 66.537 42.1087 66.5261C42.1279 66.5459 42.1279 66.6426 42.2738 66.6426C42.3936 66.6264 42.5091 66.5868 42.6136 66.5261C42.7301 66.4781 42.8274 66.4288 42.8274 66.3341C42.7787 66.169 42.6815 66.0909 42.5362 66.0909C42.4617 66.0862 42.3875 66.103 42.3224 66.1395C42.3224 66.1395 42.2738 66.0422 42.1087 66.1395C41.9435 66.2368 41.9627 66.2368 42.0114 66.2854C42.0984 66.3629 42.0696 66.4134 42.0696 66.4134L42.0677 66.4096ZM40.9707 67.4195C40.9707 67.3709 41.2133 67.2736 41.2811 67.303C41.349 67.3222 41.5429 67.6909 41.5429 67.7299C41.5429 67.7786 41.3003 67.895 41.2031 67.895C41.1058 67.895 40.9413 67.7299 40.9413 67.703C40.9413 67.6838 41.0578 67.655 41.0578 67.6352C41.0866 67.5872 40.9707 67.4701 40.9707 67.4214V67.4195ZM40.2027 66.0019C40.2514 65.9827 40.2514 65.9341 40.3192 65.8854C40.3623 65.8568 40.4161 65.8497 40.4651 65.8662C40.4998 65.8044 40.5604 65.7614 40.6303 65.7491C40.7467 65.7299 40.844 65.7491 40.8223 65.7978C40.8223 65.9437 40.9195 66.0403 40.9195 66.1568C40.9195 66.2733 40.8517 66.4192 40.6091 66.5165C40.3666 66.5843 40.0363 66.5843 39.9877 66.5651C39.9391 66.5459 39.8904 66.3514 39.9391 66.2541C39.9877 66.1568 40.1234 66.0506 40.2015 66.0019H40.2027Z" fill="#82764F"/>
<path fill-rule="evenodd" clip-rule="evenodd" d="M40.5118 66.0678C40.5118 66.0678 40.3467 66.1651 40.3467 66.2138C40.332 66.2607 40.3255 66.3099 40.3275 66.359C40.3275 66.3878 40.5412 66.3398 40.57 66.3104C40.5796 66.2912 40.5118 66.1184 40.5118 66.0678Z" fill="#6E6342"/>
<path fill-rule="evenodd" clip-rule="evenodd" d="M39.0682 65.6115C39.1648 65.6314 39.3299 65.6115 39.456 65.6602C39.5533 65.7088 39.6211 65.8061 39.5239 65.9226C39.4266 66.039 39.3319 66.2138 39.1162 66.1843C38.8736 66.1651 38.6407 66.039 38.6407 65.9418C38.6324 65.8175 38.6744 65.695 38.7571 65.6019C38.8544 65.5245 38.9024 65.5731 39.0675 65.6115H39.0682Z" fill="#585136"/>
<path fill-rule="evenodd" clip-rule="evenodd" d="M38.9515 65.7088C38.9515 65.7088 38.6411 65.9514 38.563 66.0685C38.4657 66.185 37.9902 66.7866 37.8449 66.9126C37.8932 66.8275 37.9482 66.7464 38.0094 66.6701C37.8174 66.7929 37.6734 66.9779 37.6017 67.1942C37.4852 67.5539 38.2526 67.7478 38.7569 67.8938C39.2612 68.0397 39.4564 68.0858 39.4564 68.0858C39.2708 67.8067 39.1113 67.511 38.9803 67.2026C38.7883 66.7462 38.6891 66.6976 38.8151 66.4838C38.9124 66.2701 39.0583 66.1248 39.0583 65.9597C39.0001 65.8061 38.9515 65.7088 38.9515 65.7088Z" fill="#574F35"/>
<path fill-rule="evenodd" clip-rule="evenodd" d="M27.8836 66.4762C27.9543 66.4891 28.0267 66.4891 28.0974 66.4762C28.2426 66.4563 29.7575 65.9002 31.3402 66C32.5251 66.0716 33.6995 66.2646 34.8449 66.576C36.8353 67.1002 39.3108 68.1389 40.9127 68.7315C41.3396 68.896 41.7575 69.1878 42.0647 69.3037C43.2884 69.7798 43.3364 69.7798 44.0551 69.9059C44.8999 70.0224 45.7639 69.7408 46.667 69.5469C47.7735 69.3037 49.6666 69.1872 51.3268 68.9446C51.8636 68.8702 52.3931 68.7501 52.9095 68.5856C52.9095 68.5856 51.5892 69.9059 48.4238 70.3814C47.1443 70.5757 45.8441 70.5921 44.5601 70.4301C43.5502 70.3328 42.8807 70.1869 42.3758 70.0416C41.803 69.8765 40.6279 69.4394 39.1815 69.0816C38.1716 68.8192 37.0452 68.6253 35.7543 68.3827C32.5697 67.7997 29.1137 67.1302 27.8823 66.48L27.8836 66.4762Z" fill="#252211"/>
<path fill-rule="evenodd" clip-rule="evenodd" d="M24.3102 60.4762C23.5422 61.1264 22.7275 61.7478 21.932 62.3494L19.5339 64.192C18.7185 64.7936 17.9224 65.415 17.1064 66.0173C16.2904 66.6195 15.4756 67.1917 14.6104 67.7453C15.3784 67.095 16.1931 66.4928 17.0084 65.9008C17.8238 65.3088 18.6692 64.7283 19.4558 64.128L21.8539 62.2829C22.6788 61.6813 23.475 61.0598 24.3102 60.4774V60.4762ZM20.0676 67.2723C20.0676 67.2723 20.9316 66.5536 22.0094 65.5443C23.3489 64.2925 24.9899 62.6899 25.514 62.3994L20.067 67.273L20.0676 67.2723Z" fill="#CFB66C"/>
<path fill-rule="evenodd" clip-rule="evenodd" d="M20.0679 67.2717C20.4954 66.8448 20.9517 66.4275 21.408 66.0192L22.1069 65.4176C22.3207 65.2256 22.5639 65.0099 22.777 64.7962C23.2039 64.3693 23.6218 63.9123 24.0487 63.4758C24.2603 63.2563 24.484 63.0489 24.7188 62.8544C24.8361 62.7505 24.9665 62.6623 25.1066 62.592C25.2237 62.5242 25.3498 62.4 25.5143 62.3782C25.4176 62.5242 25.3012 62.592 25.2039 62.7181C25.0874 62.8154 24.9901 62.9318 24.8935 63.0285C24.6797 63.2422 24.4372 63.4362 24.2234 63.6307C23.7671 64.0192 23.2916 64.3987 22.8352 64.8051C22.3789 65.2115 21.952 65.6499 21.4951 66.0576C21.0004 66.4755 20.544 66.8832 20.0679 67.2736V67.2717ZM25.874 63.3882C25.874 63.3882 22.7092 66.4858 22.0583 66.9901L25.874 63.3882Z" fill="#CFB66C"/>
<path fill-rule="evenodd" clip-rule="evenodd" d="M25.8738 63.3882C25.5891 63.7177 25.2838 64.0289 24.9599 64.32L23.9999 65.2326C23.6895 65.543 23.3976 65.8541 23.068 66.1645C22.7282 66.4557 22.4178 66.7405 22.0581 67.0093L22.9899 66.0966C23.301 65.7862 23.6408 65.5245 23.9711 65.2134L24.9029 64.3008C25.2229 63.9808 25.5339 63.6698 25.8738 63.3882ZM26.0191 65.0675C25.7273 65.8817 25.3836 66.6763 24.9899 67.4464C24.1746 69.0778 22.9515 71.1162 22.4171 72.1555L26.0191 65.0675Z" fill="#CFB66C"/>
<path fill-rule="evenodd" clip-rule="evenodd" d="M26.0191 65.0682C26.0191 65.4272 25.9218 65.7382 25.8053 66.0486C25.6918 66.3593 25.5623 66.6639 25.4175 66.9613C25.2716 67.2525 25.1064 67.5635 24.9413 67.8451C24.7762 68.1267 24.5823 68.4173 24.4364 68.7091L23.4559 70.4371C23.116 71.0131 22.7858 71.5923 22.4268 72.1459C22.6693 71.5245 22.9996 70.9421 23.3106 70.3693C23.6504 69.7933 23.9608 69.2173 24.2706 68.6214C24.4218 68.3245 24.5579 68.0201 24.6783 67.7094C24.8236 67.3984 24.9688 67.1072 25.086 66.8256C25.2312 66.5152 25.3477 66.2234 25.4936 65.9424C25.6581 65.641 25.7944 65.3498 26.0178 65.0682L26.0191 65.0682Z" fill="#CFB66C"/>
<path fill-rule="evenodd" clip-rule="evenodd" d="M29.4757 73.0291C29.4757 73.0291 28.5157 74.3008 28.6117 75.9123C28.8735 75.0682 29.2037 73.7766 29.4757 73.0291ZM30.3884 74.304C30.3884 74.304 30.0485 77.76 29.7669 79.4592C30.165 77.495 30.2424 77.6602 30.3884 74.304ZM36.7474 79.6634C36.7474 79.6634 35.3106 83.8874 35.2812 85.0611C35.5922 83.8541 36.1938 81.3882 36.7474 79.6602V79.6634Z" fill="#DEC270"/>
<path fill-rule="evenodd" clip-rule="evenodd" d="M40.1069 72.768C40.1069 72.768 42.4372 76.6125 44.185 79.8938C43.7121 78.2426 42.6241 75.2141 40.1069 72.768Z" fill="#CBAF59"/>
<path fill-rule="evenodd" clip-rule="evenodd" d="M46.3691 78.4275C47.6486 80.6891 48.8023 83.0194 49.8251 85.408C49.6312 83.7574 49.1064 80.9325 46.3691 78.4275Z" fill="#E3C677"/>
<path fill-rule="evenodd" clip-rule="evenodd" d="M64.7772 84.096C65.165 83.8534 65.9324 82.5325 66.6025 82.2029C67.2719 81.863 67.7769 81.7952 68.3791 81.1251C68.9807 80.4256 69.1471 79.9987 70.4662 79.4458C72.3113 78.649 71.0422 77.6198 71.0422 77.6198C71.2454 77.4202 71.4627 77.2354 71.6924 77.0669C72.1686 76.7078 72.7215 76.2707 72.6735 75.5034C72.6057 74.2125 72.3631 72.3386 71.3046 71.2512C72.3337 71.0374 74.3042 70.8922 75.5286 70.5818C76.9455 70.2221 77.5964 69.7171 77.5964 69.7171C77.5964 69.7171 76.781 68.329 78.1014 66.9312C79.4217 65.5334 80.4994 64.6982 81.2956 63.1347C80.383 63.0182 78.9916 62.5331 75.4409 63.8822C75.6326 63.9724 75.8176 64.0761 75.9945 64.1926C75.9945 64.1926 73.8102 64.7949 73.014 65.465C71.6252 66.6394 71.4505 67.6006 69.9458 68.3194C68.4412 69.0381 66.9263 68.8435 65.6745 69.4259C64.4226 70.0083 64.2377 70.5037 63.7807 70.7174C63.878 70.8339 63.7615 71.0278 63.9458 71.193C63.8294 71.3581 63.1497 72.4646 62.4604 72.4646C62.5282 72.727 63.1106 72.921 63.1106 72.921C63.1106 72.921 62.6838 73.232 61.5964 73.3094C62.1494 73.8854 62.6742 74.5133 64.1206 75.4259C64.0041 75.6685 63.5183 76.0282 63.7129 76.4845C63.9266 76.9408 64.4809 77.5622 66.6934 78.0672C65.567 78.1152 64.2473 78.3776 62.4694 78.135C60.6927 77.9213 60.4015 77.7952 59.3046 78.0672C59.421 78.1837 59.7314 78.1837 60.0034 78.4941C59.7122 78.5133 57.887 78.2803 57.2655 79.0963C56.6153 79.9405 56.3337 81.3293 56.3823 82.2611C56.0425 82.4262 55.7122 82.7174 55.8774 83.3197C56.0425 83.9219 56.9065 84.1158 57.4601 84.4941C58.013 84.9018 58.0617 85.047 58.5865 84.9504C59.1394 84.8339 59.9548 84.281 60.431 84.281C60.9071 84.281 61.2463 84.64 61.2463 84.64C61.2463 84.64 62.5378 84.0186 62.6639 84.135C62.7804 84.2515 62.6831 84.999 62.8092 85.1155C62.9372 85.2032 64.3919 84.3392 64.7804 84.096H64.7772Z" fill="#ECD592"/>
</svg>
