<svg width="120" height="120" viewBox="0 0 120 120" fill="none" xmlns="http://www.w3.org/2000/svg">
<circle cx="60" cy="60" r="60" fill="#172852"/>
<path d="M48.3299 26.814C55.3559 24.186 63.2639 24.18 70.4219 26.34C79.7399 29.232 87.6059 36.264 91.7159 45.09C92.8499 47.604 93.9359 50.226 94.0439 53.022C88.8059 49.986 83.0639 48.018 77.3099 46.224C68.1059 42.906 58.4699 40.602 49.7579 36.042C47.7299 34.83 45.1439 33.588 44.5919 31.062C44.3699 28.878 46.6799 27.66 48.3299 26.814Z" fill="#FFD83D"/>
<path d="M27.12 48.054C29.154 42.534 32.49 37.41 37.02 33.612C38.172 43.086 42.204 52.242 48.864 59.13C56.85 67.428 68.226 72.522 79.8 72.33C84.396 72.474 88.89 71.412 93.372 70.554C88.962 86.49 71.496 97.068 55.314 94.524C45.546 93.276 36.528 87.492 31.086 79.326C24.948 70.302 23.4 58.32 27.12 48.054Z" fill="#FFD83D"/>
<path d="M77.3101 46.224C83.0641 48.018 88.8061 49.986 94.0441 53.022L94.3981 53.208C94.8841 56.862 95.2381 60.588 94.5901 64.248C91.9561 63.132 89.8201 61.17 87.5881 59.436C83.2921 55.86 78.9061 51.768 77.3101 46.224Z" fill="#FF6F03"/>
</svg>
